<svg width="100" height="84" viewBox="0 0 100 84" fill="none" xmlns="http://www.w3.org/2000/svg">
<path d="M44.6537 1.05617L7.37068 16.4832C5.29739 17.3412 5.31887 20.2866 7.40515 21.1136L44.8436 35.9601C48.133 37.2647 51.7963 37.2647 55.0857 35.9601L92.5247 21.113C94.6104 20.2866 94.633 17.3418 92.5586 16.4837L55.2767 1.0556C51.8754 -0.351867 48.0545 -0.351867 44.6531 1.0556" fill="#FCB400"/>
<path d="M53.2866 44.0669V81.156C53.2866 82.9195 55.0654 84.128 56.7052 83.478L98.423 67.2851C98.8883 67.1007 99.2874 66.7807 99.5686 66.3666C99.8498 65.9526 100 65.4636 100 64.9631V27.8745C100 26.1104 98.2212 24.9025 96.5815 25.5525L54.8636 41.7454C54.3984 41.93 53.9994 42.25 53.7182 42.664C53.437 43.078 53.2867 43.567 53.2866 44.0674" fill="#18BFFF"/>
<path d="M43.5447 45.9806L31.1638 51.9585L29.9067 52.5662L3.77126 65.089C2.11512 65.8882 0 64.6809 0 62.8405V28.0298C0 27.3639 0.341403 26.7891 0.799245 26.3567C0.987073 26.1697 1.20016 26.0098 1.43231 25.8819C2.05633 25.5071 2.94714 25.4071 3.70456 25.7067L43.3367 41.4101C45.3512 42.2093 45.5095 45.0321 43.5447 45.9811" fill="#F82B60"/>
<path d="M43.5447 45.9806L31.1638 51.9585L0.799255 26.3561C0.98712 26.1693 1.20021 26.0097 1.43232 25.8819C2.05634 25.5071 2.94715 25.4071 3.70457 25.7067L43.3367 41.4101C45.3512 42.2093 45.5095 45.0321 43.5447 45.9811" fill="black" fill-opacity="0.25"/>
</svg>
