<svg width="100" height="46" viewBox="0 0 100 46" fill="none" xmlns="http://www.w3.org/2000/svg">
<path d="M79.0458 19.295L76.9712 18.4653C67.2208 40.4044 28.4321 27.0665 26.0977 33.5931C25.7087 38.0017 47.2801 34.4313 62.7016 35.1786C67.4044 35.4063 69.7626 38.9564 67.7657 44.7427L71.6989 44.7548C76.236 30.6106 90.7157 37.829 91.3208 33.161C90.3266 30.0919 74.6801 33.161 79.0458 19.295Z" fill="white"/>
<path d="M68.8797 42.3239C69.502 40.2497 69.2945 38.1747 68.2574 36.9298C67.2199 35.6849 65.7676 34.8556 63.9004 34.6478L27.8008 34.2325C27.5934 34.2325 27.3859 34.0255 27.1785 34.0255C26.9711 33.8177 26.9711 33.6103 27.1785 33.4028C27.3859 32.988 27.5934 32.7802 28.0082 32.7802L64.3152 32.3653C68.6723 32.1583 73.2367 28.631 74.8961 24.4817L76.9711 19.0876C76.9711 18.8798 77.1785 18.6724 76.9711 18.4649C74.6887 7.88408 65.1453 0.000488281 53.9418 0.000488281C43.5684 0.000488281 34.6473 6.63916 31.5352 15.9755C29.4605 14.5231 26.9711 13.6931 24.0664 13.9013C19.0871 14.3157 15.1453 18.4649 14.5227 23.4442C14.3152 24.6892 14.5227 25.9341 14.7305 27.1786C6.63906 27.386 0 34.0251 0 42.3239C0 43.1536 0 43.7763 0.207422 44.606C0.207422 45.0212 0.622266 45.2286 0.830078 45.2286H67.4273C67.8422 45.2286 68.2574 45.0216 68.2574 44.606L68.8797 42.3239Z" fill="#F4811F"/>
<path d="M80.2906 19.0876H79.2531C79.0457 19.0876 78.8383 19.2946 78.6309 19.5024L77.1785 24.4817C76.5563 26.556 76.7637 28.6314 77.8012 29.8759C78.8383 31.1208 80.2906 31.9501 82.1578 32.1583L89.8344 32.5731C90.0414 32.5731 90.2492 32.7802 90.4567 32.7802C90.6637 32.988 90.6637 33.1954 90.4567 33.4028C90.2492 33.8181 90.0418 34.0255 89.6266 34.0255L81.743 34.4403C77.386 34.6474 72.8219 38.1747 71.1621 42.3239L70.7469 44.1911C70.5395 44.3989 70.7469 44.8138 71.1621 44.8138H98.5481C98.9629 44.8138 99.1703 44.6063 99.1703 44.1915C99.5852 42.5314 100 40.6642 100 38.797C100 28.0087 91.0789 19.0876 80.2906 19.0876Z" fill="#FAAD3F"/>
</svg>
