<?xml version="1.0" encoding="UTF-8"?>
<svg version="1.1" xmlns="http://www.w3.org/2000/svg" width="512" height="512">
<path d="M0 0 C3.30473118 0.01389567 6.60663751 -0.02036409 9.91113281 -0.05834961 C30.29307779 -0.13192236 47.67865415 3.78604142 62.94628906 18.20141602 C72.67118023 27.97452978 72.67118023 27.97452978 74.15332031 31.69360352 C75.91441979 34.56133982 78.16356938 34.86869166 81.30957031 35.88891602 C87.97905546 38.2772128 95.11047564 41.49489584 99.60180664 47.22509766 C101.26616544 48.84196454 101.26616544 48.84196454 103.7512207 48.48974609 C104.71020264 48.27729248 105.66918457 48.06483887 106.65722656 47.84594727 C107.7274707 47.62060303 108.79771484 47.39525879 109.90039062 47.16308594 C111.04604492 46.90760986 112.19169922 46.65213379 113.37207031 46.38891602 C115.76305575 45.89733436 118.15499248 45.4103573 120.54785156 44.92797852 C121.71525879 44.69111328 122.88266602 44.45424805 124.08544922 44.21020508 C155.29873626 38.07438097 187.58913922 41.4397121 218.30957031 48.57641602 C218.91542969 47.75399414 219.52128906 46.93157227 220.14550781 46.08422852 C237.82543385 22.38613557 261.759914 6.06652806 291.22436523 0.96899414 C296.99259149 0.23501394 302.75218023 0.23733062 308.55957031 0.26391602 C309.84500732 0.26955566 311.13044434 0.27519531 312.45483398 0.28100586 C341.87779183 0.65781671 367.5846321 13.22286196 388.22363281 34.00268555 C404.94780572 51.50440213 416.28897137 76.37412806 416.48657227 100.71411133 C416.49642906 101.72789604 416.49642906 101.72789604 416.50648499 102.76216125 C416.52603079 104.97628936 416.53783788 107.19035029 416.54785156 109.40454102 C416.55192709 110.16770378 416.55600262 110.93086655 416.56020164 111.71715546 C416.58098206 115.75633972 416.59531859 119.79549082 416.60473633 123.8347168 C416.61578839 127.97802232 416.6501972 132.12078906 416.68990803 136.26390457 C416.71620753 139.4760835 416.72443985 142.68813643 416.72801781 145.90041351 C416.73284881 147.42645662 416.7443616 148.95249545 416.7630558 150.4784317 C416.92816879 164.84782133 414.25349059 175.11132403 404.34472656 185.67016602 C397.58914848 192.2180681 389.76660337 196.03815556 380.43457031 197.32641602 C376.69751254 198.07766373 375.1795931 199.39885722 372.95410156 202.47094727 C369.96690545 207.22313338 370.01029713 210.31467333 371.15527344 215.69946289 C371.39181641 216.62823242 371.62835938 217.55700195 371.87207031 218.51391602 C372.29387213 220.37633329 372.71186773 222.23961686 373.12597656 224.10375977 C373.33383789 225.02584229 373.54169922 225.9479248 373.75585938 226.89794922 C375.59268961 235.78325103 375.46627843 244.79309592 375.43994141 253.82568359 C375.43458891 256.00633726 375.43991218 258.18678426 375.44628906 260.36743164 C375.44584439 261.78995821 375.44455365 263.21248478 375.44238281 264.63500977 C375.44341003 265.3257106 375.44443726 266.01641144 375.44549561 266.7280426 C375.42170523 270.79799585 375.03414074 274.64892325 374.39550781 278.66235352 C374.09236819 281.57726303 374.00551266 283.02508736 375.42724609 285.60302734 C377.10476098 287.51920057 378.85951777 289.12712201 380.80957031 290.76391602 C382.11432523 291.95903719 383.41772632 293.15563817 384.71972656 294.35375977 C385.34637207 294.9117627 385.97301758 295.46976562 386.61865234 296.04467773 C402.71264302 310.62361182 415.19003263 334.71722474 416.48657227 356.55810547 C416.79676469 372.41005068 416.49533467 386.61274042 411.23535156 401.64672852 C410.04280662 405.05636662 410.04280662 405.05636662 409.30957031 408.57641602 C410.86538135 411.31354986 410.86538135 411.31354986 413.30957031 413.57641602 C417.69597609 421.72259817 417.73383133 432.45548472 415.65332031 441.39672852 C412.04159956 450.33262383 404.72879381 457.15596015 396.30957031 461.57641602 C391.36180997 463.48575582 386.54935936 463.79474056 381.30957031 463.57641602 C381.00019531 465.18516602 381.00019531 465.18516602 380.68457031 466.82641602 C376.64979551 482.52334813 365.9565803 495.21995921 352.30957031 503.57641602 C339.0156216 511.23526573 327.25262358 513.09619727 312.15893555 513.02246094 C309.51238752 513.01396519 306.86801502 513.04276878 304.22167969 513.07446289 C285.07413401 513.15484128 268.62420298 508.41375526 254.51269531 494.80297852 C253.78566406 494.06821289 253.05863281 493.33344727 252.30957031 492.57641602 C251.68566406 491.98602539 251.06175781 491.39563477 250.41894531 490.78735352 C243.77140055 483.99008928 237.60374788 473.09786529 236.30957031 463.57641602 C234.73175781 463.60735352 234.73175781 463.60735352 233.12207031 463.63891602 C229.30957031 463.57641602 229.30957031 463.57641602 226.87939453 463.00317383 C223.95676613 462.5178276 222.21542547 462.8772033 219.37988281 463.68579102 C218.43185791 463.94473145 217.48383301 464.20367187 216.50708008 464.47045898 C214.98618774 464.89415771 214.98618774 464.89415771 213.43457031 465.32641602 C193.01461053 470.67542146 173.37406892 472.09603363 152.30957031 471.57641602 C152.17808594 472.80360352 152.04660156 474.03079102 151.91113281 475.29516602 C150.69179916 484.94787007 145.6384213 492.32276682 138.10253906 498.33813477 C129.48696572 504.39985843 122.10842886 504.85172484 111.79785156 504.81469727 C109.32323672 504.83012036 106.84862725 504.84642424 104.37402344 504.86352539 C100.50126239 504.87994059 96.62889633 504.88892852 92.75610352 504.88183594 C88.99874028 504.87919953 85.24255638 504.90745632 81.48535156 504.93969727 C80.34431473 504.92949051 79.20327789 504.91928375 78.02766418 504.9087677 C70.84412063 504.99507343 65.53626766 506.36322696 59.01417542 509.35401917 C52.5726863 512.26537062 46.26360964 512.89264559 39.27050781 512.91235352 C38.42718903 512.91901031 37.58387024 512.92566711 36.71499634 512.93252563 C34.93843749 512.9425949 33.16184126 512.94734444 31.38525391 512.94702148 C28.71223065 512.95137101 26.04089358 512.98768526 23.36816406 513.02563477 C12.45201316 513.09794732 1.30217335 512.9065443 -8.29370117 506.96435547 C-13.50146942 504.83640589 -18.56856181 505.1757322 -24.13964844 505.20532227 C-26.62207165 505.18793358 -29.10449349 505.17034927 -31.58691406 505.15258789 C-35.47943719 505.14253982 -39.37186877 505.13891335 -43.2644043 505.140625 C-47.03559206 505.13703408 -50.8060853 505.10960724 -54.57714844 505.08032227 C-55.72648361 505.08850479 -56.87581879 505.09668732 -58.0599823 505.1051178 C-68.61319073 505.00892285 -77.48453242 502.46674707 -85.68261719 495.63500977 C-93.20639388 487.920943 -96.2464222 478.56009189 -96.41210938 467.95019531 C-96.11573578 458.00393915 -91.59101344 449.17344306 -87.75439453 440.16137695 C-81.69438537 425.43825237 -80.49227166 410.02124961 -80.25292969 394.26391602 C-79.57940387 364.88069626 -72.03176354 339.12460315 -52.69042969 316.57641602 C-51.92214844 315.90610352 -51.15386719 315.23579102 -50.36230469 314.54516602 C-48.43992423 312.69949757 -48.43992423 312.69949757 -48.63183594 310.15844727 C-48.83679687 309.24450195 -49.04175781 308.33055664 -49.25292969 307.38891602 C-49.46949219 306.33575195 -49.68605469 305.28258789 -49.90917969 304.19750977 C-50.29589844 302.40506836 -50.29589844 302.40506836 -50.69042969 300.57641602 C-51.23530635 297.70559712 -51.74381029 294.82875558 -52.25292969 291.95141602 C-52.37933838 291.27183838 -52.50574707 290.59226074 -52.63598633 289.89208984 C-54.59774688 279.08884625 -54.92743889 268.34831489 -54.94042969 257.38891602 C-54.94210144 256.64262939 -54.94377319 255.89634277 -54.94549561 255.12744141 C-54.94734088 241.3203614 -54.37854589 227.39274104 -51.03271484 213.92993164 C-49.68495186 208.6893424 -49.68495186 208.6893424 -50.88574219 203.54516602 C-51.52253906 202.73047852 -52.15933594 201.91579102 -52.81542969 201.07641602 C-56.78307654 195.56709967 -60.69042969 189.56628537 -60.69042969 182.57641602 C-61.96917969 182.65891602 -63.24792969 182.74141602 -64.56542969 182.82641602 C-73.35178553 182.79882934 -81.45111116 178.6416763 -87.69042969 172.57641602 C-95.08951219 163.41799611 -96.79213619 154.23659202 -96.00244141 142.69897461 C-95.35956036 138.32557259 -93.3358885 134.74102665 -91.10058594 130.99438477 C-89.31899732 127.95733485 -89.31899732 127.95733485 -88.69042969 124.57641602 C-89.59776368 121.33809069 -89.59776368 121.33809069 -91.00292969 117.88891602 C-99.20938764 96.74964466 -97.8835861 72.78857135 -89.05566406 52.08837891 C-85.09140167 43.28314224 -80.00545577 35.84733977 -73.69042969 28.57641602 C-72.72169922 27.45686523 -72.72169922 27.45686523 -71.73339844 26.31469727 C-52.6279782 5.84173116 -26.94576866 -0.15786975 0 0 Z M113.30957031 65.57641602 C113.58671875 66.30086914 113.86386719 67.02532227 114.14941406 67.77172852 C114.51164063 68.73852539 114.87386719 69.70532227 115.24707031 70.70141602 C115.78654297 72.1284082 115.78654297 72.1284082 116.33691406 73.58422852 C121.49386928 89.44859678 118.44825869 107.50051706 113.16894531 122.90454102 C111.67971989 127.53467824 113.20634917 130.48620566 115.30957031 134.63891602 C115.66019531 135.28989258 116.01082031 135.94086914 116.37207031 136.61157227 C119.71532562 143.61847818 119.33565868 152.5200106 117.47363281 159.88110352 C114.39602025 167.99856483 110.13602009 173.94619815 102.44238281 178.13891602 C96.38965764 180.84955121 90.92026715 182.24588117 84.30957031 182.57641602 C83.88546875 183.61540039 83.46136719 184.65438477 83.02441406 185.72485352 C75.47152389 203.85266084 64.78226457 218.4572504 46.30957031 226.57641602 C26.50858599 233.73714934 -2.09045518 235.89175577 -21.66308594 226.81860352 C-24.12460009 225.61457531 -26.49908349 224.3352425 -28.89746094 223.00219727 C-31.61311825 221.34907999 -31.61311825 221.34907999 -34.69042969 221.57641602 C-38.72328969 247.69212111 -39.18646445 273.80881148 -32.69042969 299.57641602 C-31.79324219 299.06852539 -30.89605469 298.56063477 -29.97167969 298.03735352 C-14.01716581 289.16916953 2.86593718 282.48213014 21.30957031 281.57641602 C22.82550781 281.49713867 22.82550781 281.49713867 24.37207031 281.41625977 C50.73607474 280.7144402 77.42586608 289.02413439 97.30957031 306.57641602 C98.15132812 307.28668945 98.99308594 307.99696289 99.86035156 308.72875977 C121.27649864 327.22009161 132.768834 353.71089055 135.30957031 381.57641602 C135.5597286 386.63853839 135.62145603 391.69651196 135.68457031 396.76391602 C136.07858679 415.30444074 139.19351103 431.47754214 146.30957031 448.57641602 C146.59574219 449.52645508 146.88191406 450.47649414 147.17675781 451.45532227 C148.11780305 453.78714206 148.11780305 453.78714206 150.52832031 454.37719727 C168.39377225 455.65688554 187.99425273 454.3073771 205.30957031 449.57641602 C205.63957031 448.91641602 205.96957031 448.25641602 206.30957031 447.57641602 C205.718282 445.97191507 205.05989306 444.39196544 204.37207031 442.82641602 C201.13696966 434.22578257 200.85819059 425.42895685 204.24707031 416.82641602 C204.90740089 415.39688315 205.58919983 413.97665423 206.30957031 412.57641602 C207.84658617 409.5023843 206.49241211 407.52182779 205.43457031 404.32641602 C198.84908385 384.33969486 201.35553517 362.38245544 210.30957031 343.57641602 C210.72851562 342.6624707 211.14746094 341.74852539 211.57910156 340.80688477 C215.52894474 332.85028424 221.10935315 326.80286823 227.30957031 320.57641602 C228.00695312 319.84422852 228.70433594 319.11204102 229.42285156 318.35766602 C243.62498791 304.45887627 263.95829664 298.51914095 283.36035156 298.36547852 C285.35970821 298.33737413 287.35905704 298.30870951 289.35839844 298.27954102 C292.4733833 298.23863447 295.5882281 298.20170561 298.70336914 298.17504883 C316.43496838 298.01059168 332.92479779 296.9891131 349.30957031 289.57641602 C350.39238281 289.12137695 351.47519531 288.66633789 352.59082031 288.19750977 C355.40813816 286.85709802 355.40813816 286.85709802 356.29785156 284.51782227 C356.40484375 283.7327832 356.51183594 282.94774414 356.62207031 282.13891602 C356.7496875 281.2455957 356.87730469 280.35227539 357.00878906 279.43188477 C357.15767578 278.01842773 357.15767578 278.01842773 357.30957031 276.57641602 C357.41914063 275.66504883 357.52871094 274.75368164 357.64160156 273.81469727 C359.41131917 256.51865717 358.42085224 238.67445185 355.30957031 221.57641602 C351.71271612 222.27865898 348.81218878 223.79208528 345.55957031 225.45141602 C325.14420582 234.82535821 298.19024338 234.51488773 277.09863281 227.51000977 C270.10509586 224.84119151 264.21022869 221.14763663 258.30957031 216.57641602 C257.48585938 215.97055664 256.66214844 215.36469727 255.81347656 214.74047852 C252.93758245 212.25491637 250.90621175 209.59443945 248.68457031 206.51391602 C243.1012084 198.77951968 243.1012084 198.77951968 234.24707031 195.76391602 C223.19619014 193.04000474 214.9456418 188.04387801 208.30957031 178.57641602 C204.40329496 171.40519411 202.19688051 165.29918153 202.1484375 157.1340332 C202.13882996 155.82456726 202.12922241 154.51510132 202.11932373 153.16595459 C202.11447065 151.73506852 202.11019308 150.30418041 202.10644531 148.87329102 C202.10361794 148.14671547 202.10079056 147.42013992 202.0978775 146.67154694 C202.08288766 142.81463764 202.0736612 138.95776562 202.06933594 135.10083008 C202.06389964 131.16092094 202.03997543 127.22136593 202.01136398 123.28156662 C201.99250032 120.21672669 201.98751926 117.15196729 201.98600006 114.08707428 C201.98301815 112.63774971 201.9751457 111.18842496 201.96181488 109.73915863 C201.84338503 95.85502449 203.66417228 82.99639273 208.63769531 69.93188477 C209.58323469 67.45687202 209.58323469 67.45687202 208.30957031 64.57641602 C183.41115225 58.90266146 136.36408866 50.20673712 113.30957031 65.57641602 Z " fill="#010101" transform="translate(95.6904296875,-0.576416015625)"/>
<path d="M0 0 C14.52964739 11.89158292 25.35247937 28.04787342 30.16064453 46.29663086 C30.53636597 47.71298828 30.53636597 47.71298828 30.91967773 49.15795898 C33.08384406 58.16430763 33.51670647 66.57577667 33.52636719 75.79391479 C33.62382151 100.77075347 37.89916758 122.77367697 49.16064453 145.29663086 C49.93633663 152.13798081 49.19973933 157.63140698 45.16064453 163.29663086 C40.47111853 167.8659126 36.10140222 169.52471975 29.56278992 169.52322388 C28.86676163 169.51290131 28.17073334 169.50257874 27.45361328 169.49194336 C26.36552116 169.48769852 26.36552116 169.48769852 25.25544739 169.48336792 C22.95284085 169.47222885 20.65063226 169.44713652 18.34814453 169.42163086 C16.78109288 169.41159292 15.2140351 169.40246849 13.64697266 169.39428711 C9.81804475 169.37231016 5.98941197 169.33782425 2.16064453 169.29663086 C2.63260254 168.51521729 3.10456055 167.73380371 3.59082031 166.92871094 C6.89280955 161.38203436 9.95212641 156.09817885 12.03564453 149.98413086 C12.42494141 148.87424805 12.81423828 147.76436523 13.21533203 146.62084961 C15.38026882 139.00778676 15.34898109 131.51236282 15.39892578 123.64428711 C15.4110334 121.82313637 15.4110334 121.82313637 15.42338562 119.9651947 C15.43717791 117.40421965 15.44792163 114.8432266 15.45581055 112.28222656 C15.46735887 109.66856485 15.48785512 107.05492723 15.51733398 104.44140625 C15.56001515 100.65470435 15.57617786 96.86869969 15.58642578 93.08178711 C15.61268791 91.33926414 15.61268791 91.33926414 15.63948059 89.5615387 C15.61877875 81.79215016 14.62659978 76.40891809 9.48486328 70.30834961 C8.94474609 69.87135742 8.40462891 69.43436523 7.84814453 68.98413086 C7.31576172 68.53424805 6.78337891 68.08436523 6.23486328 67.62084961 C-0.24962005 63.48103822 -4.93141646 62.99663909 -12.43701172 63.52319336 C-41.7818959 64.80161916 -41.7818959 64.80161916 -49.15478516 60.24975586 C-53.81193305 55.4263465 -56.63293422 49.86537517 -58.7824707 43.54907227 C-60.05159217 40.84431028 -61.27814283 39.79785529 -63.83935547 38.29663086 C-67.23872507 37.65761834 -67.23872507 37.65761834 -70.83935547 39.29663086 C-74.77496478 43.54771987 -78.03504274 48.27173828 -80.17529297 53.65991211 C-81.864722 57.3918519 -83.19029595 60.31782963 -86.83935547 62.29663086 C-92.50245755 63.39122056 -98.1915089 63.35342523 -103.94018555 63.20141602 C-111.10983618 63.01198931 -115.78237362 63.40539282 -121.83935547 67.29663086 C-122.90186523 67.80323242 -122.90186523 67.80323242 -123.98583984 68.32006836 C-126.43091433 69.60830571 -126.78430933 70.76452014 -127.83935547 73.29663086 C-128.34547363 74.06346191 -128.8515918 74.83029297 -129.37304688 75.62036133 C-131.57846765 81.14970299 -131.26711287 86.46722537 -131.23779297 92.36694336 C-131.24209824 94.27586868 -131.24209824 94.27586868 -131.24649048 96.22335815 C-131.24853003 98.91508699 -131.24452677 101.60599606 -131.23046875 104.29760742 C-131.21348071 107.71331582 -131.22315806 111.12831142 -131.24118614 114.543993 C-131.25477913 117.83916671 -131.24519134 121.13426023 -131.23779297 124.42944336 C-131.24386566 125.63923859 -131.24993835 126.84903381 -131.25619507 128.0954895 C-131.16523423 139.26255452 -129.04274853 149.03185648 -123.71435547 158.85913086 C-119.90256917 166.10698975 -119.90256917 166.10698975 -118.83935547 169.29663086 C-123.57155309 169.39590239 -128.3031376 169.46828719 -133.03613281 169.51635742 C-134.64431321 169.53640713 -136.2524213 169.56365449 -137.86035156 169.59838867 C-140.17905567 169.6472035 -142.49679172 169.66966514 -144.81591797 169.68725586 C-145.88502914 169.71822357 -145.88502914 169.71822357 -146.97573853 169.74981689 C-152.86570125 169.75243283 -156.33148652 167.7330166 -160.48388672 163.69897461 C-164.67000551 158.44882562 -165.35943223 154.44588932 -165.31982422 147.86303711 C-164.65559323 142.93260706 -162.78901599 138.96785919 -160.68994141 134.49853516 C-152.26306005 116.5543594 -149.79590797 98.39416357 -149.5015564 78.76269531 C-149.05208305 49.72207115 -141.9356872 25.45972313 -120.83935547 4.29663086 C-86.53439136 -27.57310432 -36.47356455 -28.79520378 0 0 Z " fill="#F9D56F" transform="translate(181.83935546875,317.703369140625)"/>
<path d="M0 0 C1.23356232 -0.00511093 2.46712463 -0.01022186 3.73806763 -0.01548767 C7.10187616 -0.02696084 10.4654373 -0.02946451 13.82924795 -0.02692437 C16.64707808 -0.02584961 19.46488584 -0.03075092 22.28271115 -0.03552979 C28.93588718 -0.04659997 35.58900673 -0.04707656 42.2421875 -0.04101562 C49.08367617 -0.03497853 55.92495904 -0.04728573 62.76641262 -0.06858569 C68.66053757 -0.08625496 74.55459732 -0.09219466 80.44874775 -0.08894795 C83.9600994 -0.08714328 87.47130425 -0.08968889 90.98263168 -0.10366249 C94.90256439 -0.11868038 98.82223904 -0.10922427 102.7421875 -0.09765625 C103.89056091 -0.10529999 105.03893433 -0.11294373 106.22210693 -0.12081909 C116.73610624 -0.05248266 125.78197812 1.72078845 133.53564453 9.2512207 C141.18216435 17.32794399 143.15359944 23.52739671 142.91845703 34.6574707 C142.51029348 40.39751201 141.43691033 46.0128099 140.31298828 51.6496582 C140.11705078 52.65963867 139.92111328 53.66961914 139.71923828 54.71020508 C137.6130955 64.51087564 133.61830198 73.06122227 125.50048828 79.2746582 C118.65587818 83.08494031 113.06301761 84.41489449 105.24267578 84.09887695 C89.40839942 82.80787774 89.40839942 82.80787774 75.41455078 88.0324707 C73.17351576 90.87978393 71.70805655 94.01926011 70.35449219 97.3659668 C68.93016554 100.54932464 66.82331364 103.16442044 64.68798828 105.8996582 C64.00091797 106.84067383 63.31384766 107.78168945 62.60595703 108.7512207 C57.94597395 114.33628392 53.37183154 116.91620049 46.12548828 117.5871582 C39.37426159 117.0051559 35.15409364 115.38214555 30.56298828 110.2746582 C27.43944981 106.5178739 26.3700946 103.70331675 26.40283203 98.82543945 C26.40766602 97.55410156 26.40766602 97.55410156 26.41259766 96.25708008 C26.42516602 94.93546875 26.42516602 94.93546875 26.43798828 93.5871582 C26.4425 92.69448242 26.44701172 91.80180664 26.45166016 90.88208008 C26.46343845 88.67953834 26.47988664 86.47713221 26.50048828 84.2746582 C25.49260254 84.29036865 24.4847168 84.3060791 23.44628906 84.32226562 C19.66300631 84.37706979 15.87975774 84.41118943 12.09619141 84.43945312 C10.46689937 84.45442587 8.83764683 84.47481141 7.20849609 84.50097656 C-5.74212027 84.70357823 -16.4428955 84.43135351 -26.49951172 75.2746582 C-37.26242017 64.51174976 -39.58591404 45.74033316 -39.99951172 31.0871582 C-39.68999584 21.86158819 -36.66982599 15.75599672 -30.41748047 9.0637207 C-21.45523741 0.703828 -11.78304189 -0.02533057 0 0 Z " fill="#000000" transform="translate(204.49951171875,213.725341796875)"/>
<path d="M0 0 C19.05068227 14.75551311 32.17451926 34.7809058 36.05645752 58.70547485 C36.81977798 64.8679457 36.81358447 71.03312006 36.8203125 77.234375 C36.82676054 78.65298081 36.83349028 80.07158537 36.84048462 81.4901886 C36.85235933 84.44083745 36.85617508 87.39137001 36.85498047 90.34204102 C36.85477645 94.10096192 36.88220746 97.85913394 36.91652489 101.61787701 C36.93886779 104.53918316 36.94281597 107.46031007 36.94176102 110.38169289 C36.94410089 111.76703309 36.95283213 113.15237948 36.96842575 114.5376339 C37.06248991 123.74539511 36.54564026 131.25111196 30.51953125 138.53515625 C29.54306641 139.33953125 29.54306641 139.33953125 28.546875 140.16015625 C27.89847656 140.71703125 27.25007812 141.27390625 26.58203125 141.84765625 C24.20656592 143.33398093 22.22199512 143.6771298 19.484375 144.16015625 C19.49325745 143.51615372 19.50213989 142.87215118 19.5112915 142.20863342 C19.600124 135.47601236 19.66025797 128.74355915 19.70410156 122.01049805 C19.72415562 119.50131461 19.75140585 116.99217756 19.78613281 114.4831543 C19.83492254 110.86625692 19.85740682 107.24998015 19.875 103.6328125 C19.90596771 101.9635244 19.90596771 101.9635244 19.93756104 100.26051331 C19.93953999 93.31461193 18.89659324 88.22838386 15.484375 82.16015625 C15.03835938 81.36222656 14.59234375 80.56429687 14.1328125 79.7421875 C8.97970072 72.58157512 1.88716103 68.57907351 -6.515625 66.16015625 C-9.84572082 65.8619682 -9.84572082 65.8619682 -13.34765625 65.88671875 C-14.64123047 65.86609375 -15.93480469 65.84546875 -17.26757812 65.82421875 C-19.29475154 65.80171906 -21.32158474 65.78517521 -23.34887695 65.77929688 C-31.59553439 65.73912317 -38.33595897 65.44428997 -45.515625 61.16015625 C-46.31355469 60.70253906 -47.11148438 60.24492188 -47.93359375 59.7734375 C-54.53514376 54.92064246 -59.78046499 48.3154083 -61.515625 40.16015625 C-61.515625 37.52015625 -61.515625 34.88015625 -61.515625 32.16015625 C-67.125625 32.16015625 -72.735625 32.16015625 -78.515625 32.16015625 C-78.20625 34.22265625 -77.896875 36.28515625 -77.578125 38.41015625 C-77.31708984 40.15039062 -77.31708984 40.15039062 -77.05078125 41.92578125 C-76.64203416 44.39616514 -76.1429036 46.7429508 -75.515625 49.16015625 C-76.08893555 49.16426514 -76.66224609 49.16837402 -77.25292969 49.17260742 C-92.75862893 49.36697289 -104.68067418 50.41858675 -116.32421875 61.70703125 C-126.03029906 72.57230475 -127.98274679 84.08084753 -127.80859375 98.26171875 C-127.80222649 100.23813858 -127.80222649 100.23813858 -127.79573059 102.25448608 C-127.78438633 105.72334506 -127.75501211 109.19181505 -127.72161865 112.66052246 C-127.69069011 116.21373231 -127.67717706 119.76700626 -127.66210938 123.3203125 C-127.63012982 130.26708484 -127.5790632 137.21360176 -127.515625 144.16015625 C-133.18964455 142.84883713 -137.52421105 139.89225343 -140.98399353 135.14564514 C-145.07268269 127.65836735 -145.23420869 120.72169997 -145.14453125 112.34375 C-145.14536277 110.91902994 -145.14783276 109.49431 -145.15184021 108.06959534 C-145.15468398 105.09321975 -145.14015216 102.1176024 -145.11254883 99.14135742 C-145.0786812 95.37800648 -145.08478594 91.61601545 -145.10269642 87.8526001 C-145.22527064 56.24738466 -139.53578819 31.45033153 -117.328125 7.59765625 C-85.80074823 -22.71712911 -35.06028505 -25.64191655 0 0 Z " fill="#646C77" transform="translate(458.515625,33.83984375)"/>
<path d="M0 0 C6.01578852 -0.26643352 10.60876389 -0.15308623 15.5234375 3.57421875 C22.83723264 10.66994202 25.3979547 19.72694603 28.2265625 29.2265625 C35.39129779 29.2265625 43.27076398 23.18236102 48.2265625 18.2265625 C50.04486093 15.63935596 51.68023452 12.98395266 53.2265625 10.2265625 C57.52398883 11.88118654 61.54721167 13.88610755 65.62890625 16.0078125 C68.43790294 17.32571771 71.2785382 18.26679962 74.2265625 19.2265625 C74.30311272 26.98203147 74.35537115 34.73740169 74.39135742 42.49316406 C74.40637189 45.12731569 74.42678963 47.76144262 74.45288086 50.39550781 C74.48958775 54.19863001 74.50636299 58.00141944 74.51953125 61.8046875 C74.53501511 62.96768372 74.55049896 64.13067993 74.56645203 65.32891846 C74.56959589 80.87190172 70.31666864 93.66003488 59.53515625 104.97265625 C47.13037129 117.08358844 32.94737429 119.41172326 16.1640625 119.5390625 C14.91689453 119.56806641 13.66972656 119.59707031 12.38476562 119.62695312 C-2.98417876 119.73085134 -16.58146193 114.90981191 -27.7734375 104.2265625 C-37.91168328 92.62882632 -41.08536604 80.95691118 -41.07421875 65.8828125 C-41.07850388 64.5997522 -41.082789 63.31669189 -41.08720398 61.99475098 C-41.09463424 59.28828784 -41.09439773 56.58195524 -41.08911133 53.87548828 C-41.08331254 50.42236122 -41.1002724 46.96976982 -41.123456 43.51673126 C-41.14180024 40.20123663 -41.13800693 36.8858575 -41.13671875 33.5703125 C-41.1459285 32.3378479 -41.15513824 31.1053833 -41.16462708 29.83557129 C-41.11287817 20.21403957 -39.45015374 14.14769256 -32.75390625 7.0234375 C-25.13840611 0.11391074 -15.72719055 0.47504331 -5.97558594 0.28222656 C-3.98214034 0.23183792 -1.99049772 0.11951229 0 0 Z " fill="#EECEB2" transform="translate(90.7734375,95.7734375)"/>
<path d="M0 0 C1.18078125 -0.05349609 2.3615625 -0.10699219 3.578125 -0.16210938 C9.97872441 -0.22982173 13.82668297 0.17177707 18.671875 4.5546875 C19.32768555 5.25835449 19.98349609 5.96202148 20.65917969 6.68701172 C29.10603906 15.28283458 42.81058871 16.94559619 54.203125 17.11132812 C56.6666551 17.12050084 59.13020317 17.12565925 61.59375 17.12695312 C73.21625591 17.30934093 73.21625591 17.30934093 78.625 21.6875 C83.22032195 27.01340858 83.22564849 31.53610912 83.19140625 38.24609375 C83.19760483 39.26743912 83.20380341 40.28878448 83.21018982 41.34107971 C83.21728093 43.50203502 83.21412642 45.66304504 83.20141602 47.82397461 C83.1876746 51.08358375 83.22148412 54.34024791 83.25976562 57.59960938 C83.32728446 75.34381386 81.02541707 89.20152453 68.625 102.6875 C57.20232765 113.48792561 42.65318059 117.23157535 27.34008789 117.13354492 C25.32528621 117.12505389 23.31335036 117.15385887 21.29882812 117.18554688 C5.62693593 117.1778457 -7.18479862 112.65878254 -18.6875 101.875 C-32.95297094 86.73255339 -32.63058734 69.25607743 -32.72509766 49.65795898 C-32.74166448 47.1412634 -32.76896365 44.62461501 -32.80712891 42.1081543 C-32.86207121 38.46117996 -32.88379656 34.81530194 -32.8984375 31.16796875 C-32.92110687 30.05205856 -32.94377625 28.93614838 -32.96713257 27.78642273 C-32.94541501 19.7009298 -31.26769754 13.78842198 -25.61923218 7.83781433 C-17.94882863 0.61230546 -10.16634232 0.09372441 0 0 Z " fill="#EECEB2" transform="translate(379.375,98.3125)"/>
<path d="M0 0 C2.62743606 1.97390171 4.87732709 4.3545767 7.1875 6.6875 C8.18789307 7.69647339 8.18789307 7.69647339 9.20849609 8.72583008 C23.89306612 23.93904462 32.61509805 43.22284658 32.5 64.5 C32.4990332 66.18391846 32.4990332 66.18391846 32.49804688 67.90185547 C32.31753928 78.13983846 30.25921253 87.33876286 27 97 C25.03299245 96.76662622 23.06626017 96.53018663 21.10229492 96.27246094 C19.46290487 96.05999325 17.81982391 95.87594276 16.17578125 95.703125 C13.22022594 94.74800838 12.66011711 93.43719254 11.1875 90.75 C7.66577202 85.0203493 3.32604367 82.10868122 -3 80 C-5.3805365 79.90658101 -7.76362743 79.87486552 -10.14599609 79.87402344 C-10.8699205 79.8721553 -11.59384491 79.87028717 -12.33970642 79.86836243 C-13.91115335 79.86436061 -15.48260609 79.86228379 -17.05405807 79.86190033 C-20.39594678 79.85848272 -23.73764128 79.83711897 -27.07946205 79.81666946 C-33.30104781 79.77865357 -39.52242543 79.74738609 -45.74414062 79.74951172 C-50.07265267 79.7502988 -54.40045271 79.7269385 -58.72877884 79.6876297 C-60.37693709 79.67716855 -62.02517752 79.67564657 -63.67335129 79.68328094 C-65.9814226 79.6929059 -68.28733819 79.67171959 -70.59521484 79.64355469 C-71.90743011 79.63990906 -73.21964539 79.63626343 -74.57162476 79.63250732 C-78.87076561 78.83935083 -80.34872588 77.41390973 -83 74 C-83.6875 70.5 -83.6875 70.5 -83 67 C-80.23437502 63.57935858 -78.75325298 62.20350258 -74.375 61.6953125 C-71.91457954 61.68832267 -69.45483316 61.83413289 -67 62 C-67 56.72 -67 51.44 -67 46 C-77.30640505 46.30312956 -85.86550985 46.86550985 -93.4375 54.4375 C-95.11730726 56.98869086 -95.11730726 56.98869086 -96.0625 60.0625 C-98.7258184 64.10043435 -101.58657034 64.50957467 -106.078125 65.94140625 C-116.93289106 69.87408219 -123.7632693 78.05322128 -129 88 C-130.14183553 90.64582039 -131.08754755 93.26264264 -132 96 C-138.93 96.99 -138.93 96.99 -146 98 C-148.42378715 91.58371466 -149.52290155 86.21855558 -149.4375 79.375 C-149.42920166 78.50544678 -149.42090332 77.63589355 -149.41235352 76.73999023 C-148.96144933 59.27026127 -142.13087782 44.11008546 -129.890625 31.7265625 C-112.10015375 14.9458207 -93.2993453 12.58410239 -69.875 12.5 C-47.24459694 12.41790232 -26.22761521 11.30038137 -6.0859375 -0.1796875 C-3.50386617 -1.19510881 -2.58719814 -0.91039484 0 0 Z " fill="#B07845" transform="translate(463,301)"/>
<path d="M0 0 C3.20354277 1.24956544 4.2403755 3.75180112 5.9921875 6.59375 C10.72177702 11.67468046 15.75265172 13.99781591 22.74169064 14.35770226 C26.54665177 14.44885491 30.34674636 14.43080073 34.15234375 14.3984375 C35.80903158 14.40394538 37.46571256 14.41207692 39.12237549 14.42269897 C43.46062928 14.4454769 47.79837693 14.44140321 52.13665771 14.42889404 C59.09301884 14.41051254 66.04908779 14.42057185 73.00537872 14.45475388 C75.4279481 14.46084474 77.84988065 14.4476207 80.2723999 14.43276978 C81.75940108 14.43571783 83.24640107 14.43937255 84.73339844 14.44384766 C86.02751648 14.43986969 87.32163452 14.43589172 88.65496826 14.43179321 C92.28051261 14.82247208 94.16246548 15.60408051 97.04296875 17.796875 C98.28872465 20.2883868 98.19009533 22.00253597 98.2199707 24.79052734 C98.23922356 26.35388321 98.23922356 26.35388321 98.25886536 27.94882202 C98.26625229 29.08203888 98.27363922 30.21525574 98.28125 31.3828125 C98.28932175 32.55010895 98.29739349 33.7174054 98.30570984 34.92007446 C98.31956694 37.39998891 98.33028178 39.87992256 98.33813477 42.35986328 C98.35524104 46.12179897 98.39910117 49.8828314 98.44335938 53.64453125 C98.45349565 56.05728522 98.46200882 58.47004666 98.46875 60.8828125 C98.48625809 61.99578705 98.50376617 63.1087616 98.52180481 64.25546265 C98.48389098 78.17081768 93.3872964 90.22121736 84.04296875 100.484375 C74.91852669 109.206723 62.41933324 114.09385157 49.87109375 114.1328125 C49.10802917 114.1394693 48.3449646 114.1461261 47.55877686 114.15298462 C45.95196928 114.16305511 44.34512035 114.16780339 42.73828125 114.16748047 C40.31307944 114.17183886 37.88972277 114.20817424 35.46484375 114.24609375 C26.58732536 114.31084448 19.17144349 113.78762307 11.04296875 109.796875 C10.05941406 109.32765625 9.07585937 108.8584375 8.0625 108.375 C-4.49304132 100.81945301 -12.22310568 90.61826202 -16.12792969 76.47021484 C-18.0817661 67.08713433 -17.54350295 57.21478166 -17.47851562 47.68164062 C-17.4569606 43.90951118 -17.47845234 40.13926117 -17.50390625 36.3671875 C-17.50126484 33.95051666 -17.49614374 31.53384699 -17.48828125 29.1171875 C-17.49637817 27.99933868 -17.5044751 26.88148987 -17.51281738 25.72976685 C-17.41783159 17.77941037 -16.1964544 12.32928352 -10.66796875 6.30078125 C-9.89710938 5.66011719 -9.12625 5.01945312 -8.33203125 4.359375 C-7.55601562 3.70066406 -6.78 3.04195313 -5.98046875 2.36328125 C-2.58153034 -0.26794327 -2.58153034 -0.26794327 0 0 Z " fill="#EECEB2" transform="translate(363.95703125,381.203125)"/>
<path d="M0 0 C4.23345851 3.84859864 7.33204386 8.16622097 10.546875 12.890625 C11.83184514 14.89223262 11.83184514 14.89223262 13 16 C14.44145723 16.10152769 15.88774855 16.13567375 17.33276367 16.1418457 C18.71506416 16.15239738 18.71506416 16.15239738 20.12528992 16.16316223 C21.63141594 16.16940865 21.63141594 16.16940865 23.16796875 16.17578125 C25.27930675 16.19898777 27.3906349 16.22310544 29.50195312 16.24804688 C32.84194441 16.28312206 36.18157576 16.31247614 39.52172852 16.32592773 C42.73759053 16.34142644 45.95238853 16.3816613 49.16796875 16.42578125 C50.16193161 16.42387283 51.15589447 16.42196442 52.17997742 16.41999817 C58.07162715 16.52365697 61.51185856 17.06948866 66 21 C67.1971631 23.3943262 67.14572484 24.92086145 67.17700195 27.59472656 C67.19625481 29.02827484 67.19625481 29.02827484 67.21589661 30.49078369 C67.22328354 31.53023132 67.23067047 32.56967896 67.23828125 33.640625 C67.246353 34.71439392 67.25442474 35.78816284 67.26274109 36.89447021 C67.27659956 39.17767721 67.28731379 41.46090508 67.29516602 43.74414062 C67.31222524 47.19442898 67.35607695 50.64372016 67.40039062 54.09375 C67.53438991 72.95262943 65.48124051 88.67275624 52 103 C49.08984375 105.4140625 49.08984375 105.4140625 45.9375 107.625 C44.91527344 108.35976563 43.89304687 109.09453125 42.83984375 109.8515625 C32.72435941 115.94023939 22.48717464 116.66769747 11.00073242 116.57641602 C8.56875831 116.56253572 6.14063684 116.5967519 3.70898438 116.63476562 C-12.25520257 116.71469015 -24.10271489 111.96285935 -36.02734375 101.1640625 C-46.09415557 90.72277409 -49.30726911 77.10100679 -49.3359375 63.1171875 C-49.3425943 61.98475616 -49.3492511 60.85232483 -49.35610962 59.68557739 C-49.36620293 57.30032977 -49.37092767 54.91505411 -49.37060547 52.52978516 C-49.37499391 48.88006467 -49.41139238 45.23153932 -49.44921875 41.58203125 C-49.45508449 39.26042079 -49.4590555 36.93880461 -49.4609375 34.6171875 C-49.48249405 32.98268143 -49.48249405 32.98268143 -49.50448608 31.31515503 C-49.45883893 23.76245638 -49.45883893 23.76245638 -47.09619141 19.83642578 C-43.42074183 16.61644771 -41.09470426 16.91998158 -36.26953125 17 C-34.89518216 17.00115919 -33.52082902 16.99977416 -32.14648438 16.99609375 C-29.98364339 16.99168828 -27.82512329 16.99969893 -25.6628418 17.05126953 C-17.09707031 17.45422045 -17.09707031 17.45422045 -9.55395508 14.07250977 C-7.77276045 11.79062467 -6.37660442 9.54152595 -5 7 C-4.03754759 5.63390334 -3.05977496 4.27838678 -2.0625 2.9375 C-1.381875 1.968125 -0.70125 0.99875 0 0 Z " fill="#EDCDB2" transform="translate(115,379)"/>
<path d="M0 0 C3.0724055 0.00097243 6.14230865 -0.04075882 9.21435547 -0.08496094 C26.23535845 -0.18850245 39.97050012 2.60564113 52.64794922 14.85644531 C56.39525846 18.83179804 59.32485267 22.45544115 61.58544922 27.43847656 C63.02894743 30.28551456 63.71948414 31.28467182 66.67529297 32.58691406 C68.58779082 33.07487648 70.51211636 33.51845104 72.44482422 33.91894531 C82.60850664 36.05791238 90.79326679 43.70563248 96.64794922 52.00097656 C104.0592948 64.26223951 103.48515042 78.2719638 100.85498047 92.02832031 C100.0303404 95.19193947 98.91165556 97.71718436 97.21044922 100.50097656 C93.58044922 100.17097656 89.95044922 99.84097656 86.21044922 99.50097656 C86.21044922 93.89097656 86.21044922 88.28097656 86.21044922 82.50097656 C83.92107422 82.58347656 81.63169922 82.66597656 79.27294922 82.75097656 C72.74272356 82.8283906 67.74526899 82.07037054 62.21044922 78.50097656 C61.59943359 78.13488281 60.98841797 77.76878906 60.35888672 77.39160156 C51.87865763 71.3396319 47.38129593 58.03321141 44.21044922 48.50097656 C44.21044922 47.84097656 44.21044922 47.18097656 44.21044922 46.50097656 C39.59044922 48.48097656 34.97044922 50.46097656 30.21044922 52.50097656 C32.17251823 59.48687667 32.17251823 59.48687667 34.89794922 66.18847656 C37.61693354 73.05067509 35.93732717 78.02464144 33.21044922 84.50097656 C32.55044922 84.50097656 31.89044922 84.50097656 31.21044922 84.50097656 C29.98388672 82.77832031 29.98388672 82.77832031 28.58544922 80.43847656 C22.69888265 71.37344911 15.46236196 66.96541488 5.40576172 63.54785156 C-2.40888941 60.8794341 -7.77346201 58.29113647 -11.97143555 50.74584961 C-13.68704264 46.03829746 -13.1920059 41.00360874 -13.03955078 36.06347656 C-13.02150391 34.95037109 -13.00345703 33.83726563 -12.98486328 32.69042969 C-12.93799304 29.96023804 -12.8662585 27.23049286 -12.78955078 24.50097656 C-18.39955078 24.50097656 -24.00955078 24.50097656 -29.78955078 24.50097656 C-29.70192849 28.14787662 -29.59494896 31.79253089 -29.47705078 35.43847656 C-29.44321289 36.97084961 -29.44321289 36.97084961 -29.40869141 38.53417969 C-29.08928182 47.62283423 -26.91410718 54.44827121 -22.78955078 62.50097656 C-22.78955078 63.16097656 -22.78955078 63.82097656 -22.78955078 64.50097656 C-23.77181641 64.613125 -23.77181641 64.613125 -24.77392578 64.72753906 C-37.05055927 66.4962066 -47.06374388 71.66957065 -54.78955078 81.50097656 C-58.38725412 87.18852228 -60.45195981 92.93462087 -61.78955078 99.50097656 C-67.23455078 99.99597656 -67.23455078 99.99597656 -72.78955078 100.50097656 C-73.61020147 98.62952961 -74.42070918 96.75363321 -75.22705078 94.87597656 C-75.67951172 93.83183594 -76.13197266 92.78769531 -76.59814453 91.71191406 C-82.34333795 76.22814688 -79.80119428 55.84858387 -73.28173828 41.08691406 C-65.73685296 26.10242089 -54.74939094 14.77807484 -39.85205078 7.12597656 C-38.92283813 6.64318237 -38.92283813 6.64318237 -37.97485352 6.15063477 C-25.72226287 0.19829695 -13.35778338 -0.02977376 0 0 Z " fill="#B07845" transform="translate(95.78955078125,16.4990234375)"/>
<path d="M0 0 C1.59813789 -0.01062721 1.59813789 -0.01062721 3.2285614 -0.02146912 C4.39229782 -0.0189917 5.55603424 -0.01651428 6.7550354 -0.01396179 C7.98468521 -0.01907272 9.21433502 -0.02418365 10.48124695 -0.02944946 C13.85122131 -0.0409694 17.22094974 -0.04341871 20.59092665 -0.04088616 C23.40644787 -0.03981586 26.22194646 -0.04470143 29.03746283 -0.04949158 C35.68178161 -0.06058523 42.32604387 -0.06102527 48.97036743 -0.05497742 C55.81866858 -0.04893958 62.66676418 -0.061244 69.51503026 -0.08254749 C75.39967035 -0.10017843 81.2842451 -0.10616242 87.16891062 -0.10290974 C90.68131195 -0.10109879 94.19356671 -0.10371391 97.70594406 -0.11762428 C101.62473323 -0.13256343 105.54326188 -0.12321938 109.46206665 -0.11161804 C111.20159859 -0.12308365 111.20159859 -0.12308365 112.97627258 -0.13478088 C120.38286722 -0.08627573 124.83487463 0.79939715 130.61294556 5.69819641 C134.14916753 10.45142984 133.45387863 15.64205365 132.73794556 21.26069641 C132.10871946 24.91020775 131.35891841 28.52191641 130.55044556 32.13569641 C130.35466919 33.03940979 130.15889282 33.94312317 129.95718384 34.8742218 C128.57607768 40.57168158 127.030766 44.20318613 122.73794556 48.26069641 C118.15681587 50.79042395 113.97369849 50.34198404 108.92153931 50.07710266 C89.77273272 48.29532473 89.77273272 48.29532473 72.78091431 54.61225891 C70.07898529 58.0724112 68.31702718 61.8718075 66.72280884 65.94526672 C65.09923792 69.76230852 62.72344416 72.97896725 60.30044556 76.32319641 C59.90937622 76.92414124 59.51830688 77.52508606 59.11538696 78.14424133 C57.99185181 79.79585266 57.99185181 79.79585266 55.73794556 82.26069641 C54.08794556 82.26069641 52.43794556 82.26069641 50.73794556 82.26069641 C50.73794556 71.70069641 50.73794556 61.14069641 50.73794556 50.26069641 C45.33741821 50.33030579 45.33741821 50.33030579 39.82778931 50.40132141 C36.32951262 50.4325425 32.83125163 50.45681588 29.33291626 50.48042297 C26.907064 50.50050212 24.48125993 50.52777116 22.05557251 50.56245422 C18.56285694 50.61113319 15.07078296 50.63370291 11.57778931 50.65132141 C10.49835556 50.67196655 9.41892181 50.69261169 8.30677795 50.71388245 C0.97606778 50.71605268 -3.65788105 49.76345367 -9.06674194 44.50679016 C-10.79004508 41.26855715 -11.57811215 37.87283521 -12.38705444 34.32319641 C-12.55592163 33.62001282 -12.72478882 32.91682922 -12.89877319 32.19233704 C-17.39734458 13.29479504 -17.39734458 13.29479504 -14.06283569 6.99507141 C-10.02197117 2.15010538 -6.38051545 0.01415945 0 0 Z " fill="#E2E5E9" transform="translate(197.26205444335938,230.7393035888672)"/>
<path d="M0 0 C3 3.46153846 3 3.46153846 3 6 C11.21562296 10.45012911 18.62933837 12.39323986 28 11 C34.2634632 8.45387675 38.2129117 4.7870883 43 0 C49.435 3.96 49.435 3.96 56 8 C52.29132387 17.27169033 45.76090732 21.58036496 36.9296875 25.7734375 C27.30788753 29.80176442 17.25628186 30.77941763 7.1875 27.4375 C-1.15138444 23.9133286 -8.90152044 18.6006854 -14 11 C-14.33 10.01 -14.66 9.02 -15 8 C-12.8782637 6.66121428 -10.75294812 5.32884524 -8.625 4 C-8.02171875 3.6184375 -7.4184375 3.236875 -6.796875 2.84375 C-2.2265625 0 -2.2265625 0 0 0 Z " fill="#050403" transform="translate(384,450)"/>
<path d="M0 0 C1.2265625 1.390625 1.2265625 1.390625 2.625 3.25 C6.89941435 8.29135472 10.69216823 10.58603286 17.30859375 11.4140625 C25.04264153 11.73041752 30.91716877 10.98740611 37 6 C38.90459109 4.08193303 40.4116143 2.20324468 42 0 C43.58583248 0.76567866 45.16856494 1.53777965 46.75 2.3125 C47.63171875 2.74175781 48.5134375 3.17101562 49.421875 3.61328125 C51.81600215 4.90103146 53.87776958 6.30915754 56 8 C53.38768622 15.72809494 47.10362482 21.19699755 40 24.9375 C29.20921164 29.74445641 17.59538286 30.94701556 6.3125 27 C-2.82195219 23.08996847 -9.74276621 17.41157406 -15 9 C-4.33333333 0 -4.33333333 0 0 0 Z " fill="#040403" transform="translate(103,450)"/>
<path d="M0 0 C2.8073971 1.36022116 4.63128222 3.61440883 6.765625 5.85546875 C13.21887666 11.16991129 20.80970039 10.44448924 28.765625 9.85546875 C34.80208548 8.26213454 38.17082057 4.79832484 41.765625 -0.14453125 C45.82788048 0.43369971 48.61324846 1.74664612 52.078125 3.91796875 C53.40263672 4.73974609 53.40263672 4.73974609 54.75390625 5.578125 C55.74970703 6.21041016 55.74970703 6.21041016 56.765625 6.85546875 C54.13458369 14.63896597 47.82327475 20.09181743 40.640625 23.79296875 C30.84664358 28.39317214 19.83861151 29.73460884 9.33984375 26.9453125 C-0.29355901 23.13846592 -8.15278589 17.29367364 -14.234375 8.85546875 C-14.234375 8.19546875 -14.234375 7.53546875 -14.234375 6.85546875 C-11.75 5.09375 -11.75 5.09375 -8.484375 3.16796875 C-7.41703125 2.52472656 -6.3496875 1.88148438 -5.25 1.21875 C-2.234375 -0.14453125 -2.234375 -0.14453125 0 0 Z " fill="#040303" transform="translate(383.234375,170.14453125)"/>
<path d="M0 0 C1.16352472 1.4627168 2.32517345 2.92700872 3.47265625 4.40234375 C7.52049038 8.63652318 13.86149221 10.8124116 19.5625 11.3125 C26.77454811 11.21935547 33.85210762 7.98702075 39 3 C39.66 2.01 40.32 1.02 41 0 C45.06225548 0.57823096 47.84762346 1.89117737 51.3125 4.0625 C52.63701172 4.88427734 52.63701172 4.88427734 53.98828125 5.72265625 C54.98408203 6.35494141 54.98408203 6.35494141 56 7 C51.3905303 16.97241041 42.80570339 22.80037933 32.875 26.875 C22.58332 29.92235915 10.42885466 29.08168796 1 24 C-5.01449641 20.17435413 -11.19936042 15.11291681 -15 9 C-13.69331354 5.07994061 -12.21332305 4.71967958 -8.625 2.8125 C-7.15933594 2.01779297 -7.15933594 2.01779297 -5.6640625 1.20703125 C-3 0 -3 0 0 0 Z " fill="#030302" transform="translate(87,170)"/>
<path d="M0 0 C7.89442815 1.12777545 7.89442815 1.12777545 10.8125 3.875 C11.37582031 4.38804687 11.93914062 4.90109375 12.51953125 5.4296875 C16.63688725 9.79690943 16.42006392 13.32196724 16.31640625 19.05078125 C15.76000445 24.23699552 13.23886638 26.76113362 9.6875 30.3125 C7 32 7 32 0 33 C0 22.11 0 11.22 0 0 Z " fill="#ECCDB1" transform="translate(479,413)"/>
<path d="M0 0 C0 10.89 0 21.78 0 33 C-7.91317365 31.86954662 -7.91317365 31.86954662 -10.8125 29.1875 C-11.37582031 28.68605469 -11.93914063 28.18460938 -12.51953125 27.66796875 C-16.35945398 23.34172335 -16.42826909 19.29200582 -16.31640625 13.69140625 C-15.71977021 8.61631698 -13.09820164 5.99106002 -9.4375 2.6875 C-6.03383188 0.33111438 -4.18350185 0 0 0 Z " fill="#ECCDB1" transform="translate(33,132)"/>
<path d="M0 0 C0 10.89 0 21.78 0 33 C-7.65756736 31.90606181 -9.95829436 30.44726639 -14.875 24.875 C-16.67032877 20.28693758 -16.64251919 15.85458942 -16 11 C-12.56896396 4.01085252 -7.76248934 0 0 0 Z " fill="#EACBB0" transform="translate(330,413)"/>
<path d="M0 0 C6.72910313 1.12151719 9.79710104 2.62318796 14.375 7.5625 C16.67581945 12.42961808 16.78113802 16.70562006 16 22 C13.83854897 26.40295581 11.15647034 29.39012327 7 32 C3.535 32.495 3.535 32.495 0 33 C0 22.11 0 11.22 0 0 Z " fill="#EBCCB0" transform="translate(182,132)"/>
<path d="M0 0 C5.61 0 11.22 0 17 0 C17 5.28 17 10.56 17 16 C11.39 16 5.78 16 0 16 C0 10.72 0 5.44 0 0 Z " fill="#060606" transform="translate(297,248)"/>
<path d="M0 0 C5.61 0 11.22 0 17 0 C17 5.28 17 10.56 17 16 C11.39 16 5.78 16 0 16 C0 10.72 0 5.44 0 0 Z " fill="#060606" transform="translate(264,248)"/>
<path d="M0 0 C5.61 0 11.22 0 17 0 C17 5.28 17 10.56 17 16 C11.39 16 5.78 16 0 16 C0 10.72 0 5.44 0 0 Z " fill="#060606" transform="translate(231,248)"/>
<path d="M0 0 C5.61 0 11.22 0 17 0 C17 5.28 17 10.56 17 16 C11.39 16 5.78 16 0 16 C0 10.72 0 5.44 0 0 Z " fill="#060606" transform="translate(198,248)"/>
</svg>
