<?xml version="1.0" encoding="utf-8"?>
<svg viewBox="117.463 167.0088 121.9274 99.9985" xmlns="http://www.w3.org/2000/svg">
  <path d="M 237.505 212.553 L 193.844 168.895 C 191.331 166.38 187.253 166.38 184.737 168.895 L 175.67 177.961 L 187.171 189.462 C 189.844 188.559 192.909 189.165 195.039 191.296 C 197.18 193.44 197.781 196.531 196.856 199.212 L 207.94 210.296 C 210.622 209.373 213.716 209.97 215.858 212.116 C 218.851 215.108 218.851 219.957 215.858 222.952 C 212.864 225.946 208.014 225.946 205.019 222.952 C 202.767 220.698 202.211 217.391 203.351 214.617 L 193.014 204.28 L 193.013 231.482 C 193.762 231.853 194.446 232.342 195.039 232.932 C 198.033 235.924 198.033 240.774 195.039 243.77 C 192.045 246.763 187.193 246.763 184.203 243.77 C 181.21 240.774 181.21 235.924 184.203 232.932 C 184.921 232.214 185.773 231.646 186.712 231.26 L 186.712 203.804 C 185.772 203.421 184.919 202.852 184.203 202.132 C 181.935 199.867 181.39 196.539 182.552 193.755 L 171.215 182.416 L 141.277 212.352 C 138.762 214.868 138.762 218.947 141.277 221.462 L 184.939 265.121 C 187.453 267.636 191.53 267.636 194.047 265.121 L 237.504 221.664 C 240.019 219.149 240.019 215.068 237.505 212.553 Z" fill="#DE4C36" transform="matrix(1.0000000000000002, 0, 0, 1.0000000000000002, 0, 0)"/>
  <ellipse style="fill: rgb(255, 255, 255); stroke: rgba(0, 0, 0, 0);" cx="147.132" cy="232.493" rx="26.883" ry="27.451" transform="matrix(1.0000000000000002, 0, 0, 1.0000000000000002, 0, 0)"/>
  <path d="M 147.538 200 C 130.93 200 117.463 213.465 117.463 230.075 C 117.463 243.365 126.08 254.637 138.03 258.615 C 139.534 258.894 140.086 257.962 140.086 257.168 C 140.086 256.451 140.057 254.081 140.044 251.568 C 131.677 253.388 129.911 248.02 129.911 248.02 C 128.544 244.544 126.573 243.62 126.573 243.62 C 123.844 241.754 126.778 241.79 126.778 241.79 C 129.798 242.004 131.389 244.89 131.389 244.89 C 134.071 249.488 138.425 248.159 140.14 247.391 C 140.411 245.446 141.19 244.12 142.049 243.37 C 135.37 242.608 128.348 240.029 128.348 228.505 C 128.348 225.222 129.523 222.538 131.446 220.433 C 131.134 219.674 130.104 216.616 131.738 212.472 C 131.738 212.472 134.264 211.664 140.011 215.556 C 142.409 214.89 144.982 214.555 147.538 214.544 C 150.094 214.555 152.67 214.89 155.073 215.556 C 160.814 211.664 163.336 212.472 163.336 212.472 C 164.973 216.616 163.942 219.674 163.63 220.433 C 165.56 222.538 166.726 225.222 166.726 228.505 C 166.726 240.056 159.69 242.6 152.993 243.346 C 154.071 244.278 155.033 246.108 155.033 248.914 C 155.033 252.938 154.998 256.177 154.998 257.168 C 154.998 257.968 155.538 258.907 157.064 258.61 C 169.007 254.629 177.614 243.36 177.614 230.075 C 177.614 213.465 164.148 200 147.538 200 Z" fill="#161614" style="" transform="matrix(1.0000000000000002, 0, 0, 1.0000000000000002, 0, 0)"/>
</svg>