<?xml version="1.0" encoding="utf-8"?>
<svg viewBox="212.484 123.326 100 99.875" xmlns="http://www.w3.org/2000/svg">
  <ellipse style="fill: rgba(0, 0, 0, 0); stroke: rgba(0, 0, 0, 0);" cx="262.895" cy="177.92" rx="45.316" ry="45.281" transform="matrix(1, 0, 0, 1, 0, -1.4210854715202004e-14)"/>
  <path d="M 262.484 123.326 C 234.873 123.326 212.484 145.712 212.484 173.326 C 212.484 195.418 226.81 214.16 246.677 220.772 C 249.176 221.234 250.093 219.687 250.093 218.366 C 250.093 217.174 250.046 213.235 250.025 209.057 C 236.115 212.082 233.18 203.158 233.18 203.158 C 230.905 197.378 227.628 195.842 227.628 195.842 C 223.092 192.739 227.97 192.802 227.97 192.802 C 232.991 193.155 235.635 197.955 235.635 197.955 C 240.094 205.599 247.332 203.389 250.185 202.112 C 250.634 198.88 251.93 196.674 253.359 195.426 C 242.254 194.161 230.579 189.874 230.579 170.715 C 230.579 165.256 232.532 160.796 235.731 157.294 C 235.212 156.035 233.5 150.949 236.215 144.062 C 236.215 144.062 240.414 142.718 249.969 149.188 C 253.957 148.079 258.234 147.524 262.484 147.505 C 266.733 147.524 271.014 148.079 275.01 149.188 C 284.553 142.718 288.746 144.062 288.746 144.062 C 291.467 150.949 289.755 156.035 289.236 157.294 C 292.442 160.796 294.382 165.256 294.382 170.715 C 294.382 189.919 282.685 194.148 271.551 195.386 C 273.344 196.937 274.942 199.98 274.942 204.645 C 274.942 211.335 274.884 216.719 274.884 218.366 C 274.884 219.697 275.784 221.256 278.319 220.765 C 298.175 214.146 312.484 195.411 312.484 173.326 C 312.484 145.712 290.097 123.326 262.484 123.326 Z" fill="#111111" transform="matrix(1, 0, 0, 1, 0, -1.4210854715202004e-14)"/>
</svg>