<svg width="100" height="98" viewBox="0 0 100 98" fill="none" xmlns="http://www.w3.org/2000/svg">
<path d="M50 0.000488281C22.3892 0.000488281 -0.000244141 22.386 -0.000244141 50.0007C-0.000244141 72.0924 14.3263 90.8345 34.1931 97.4461C36.6918 97.9088 37.6094 96.3614 37.6094 95.0406C37.6094 93.8485 37.5627 89.9095 37.5416 85.7316C23.6311 88.7562 20.6959 79.8322 20.6959 79.8322C18.4215 74.0528 15.1443 72.5163 15.1443 72.5163C10.608 69.4129 15.4863 69.4765 15.4863 69.4765C20.5073 69.8294 23.1511 74.6292 23.1511 74.6292C27.6105 82.2733 34.8479 80.0631 37.7012 78.7859C38.1498 75.5539 39.4458 73.3485 40.8756 72.0999C29.7701 70.8352 18.0952 66.5479 18.0952 47.3894C18.0952 41.9308 20.0485 37.4701 23.2472 33.9687C22.728 32.7091 21.0167 27.6238 23.7315 20.7366C23.7315 20.7366 27.9301 19.3927 37.4851 25.8619C41.4732 24.7537 45.7507 24.1985 50 24.1796C54.2492 24.1985 58.5298 24.7537 62.5258 25.8619C72.0694 19.3927 76.2622 20.7366 76.2622 20.7366C78.9836 27.6238 77.2715 32.7091 76.7523 33.9687C79.9581 37.4701 81.898 41.9304 81.898 47.3894C81.898 66.5934 70.2012 70.8223 59.0675 72.0599C60.8607 73.6116 62.4587 76.6546 62.4587 81.3192C62.4587 88.0091 62.4007 93.3936 62.4007 95.0406C62.4007 96.3712 63.3007 97.9304 65.8355 97.4394C85.6912 90.8204 99.9998 72.085 99.9998 50.0007C99.9998 22.386 77.6135 0.000488281 50 0.000488281Z" fill="#111111"/>
</svg>
