<?xml version="1.0" encoding="utf-8"?>
<svg viewBox="149.061 123.4 130 130" width="130" height="130" xmlns="http://www.w3.org/2000/svg">
  <path d="M 279.061 142.407 L 179.061 142.407 L 179.061 242.407 L 279.061 242.407 L 279.061 142.407 Z" fill="#F7DF1E" transform="matrix(1, 0, 0, 1, 7.105427357601002e-15, 0)"/>
  <path d="M 246.236 220.532 C 248.25 223.821 250.871 226.239 255.506 226.239 C 259.399 226.239 261.887 224.293 261.887 221.604 C 261.887 218.382 259.331 217.24 255.046 215.366 L 252.696 214.358 C 245.915 211.469 241.411 207.85 241.411 200.199 C 241.411 193.152 246.78 187.786 255.172 187.786 C 261.147 187.786 265.442 189.866 268.538 195.31 L 261.22 200.009 C 259.609 197.12 257.871 195.982 255.172 195.982 C 252.42 195.982 250.676 197.728 250.676 200.009 C 250.676 202.828 252.422 203.969 256.453 205.715 L 258.803 206.721 C 266.787 210.145 271.295 213.636 271.295 221.483 C 271.295 229.944 264.649 234.578 255.723 234.578 C 246.996 234.578 241.358 230.42 238.599 224.969 L 246.236 220.532 Z M 213.041 221.347 C 214.517 223.966 215.86 226.18 219.088 226.18 C 222.176 226.18 224.123 224.972 224.123 220.275 L 224.123 188.323 L 233.52 188.323 L 233.52 220.402 C 233.52 230.132 227.815 234.561 219.488 234.561 C 211.965 234.561 207.607 230.667 205.392 225.978 L 213.041 221.347 Z" fill="black" transform="matrix(1, 0, 0, 1, 7.105427357601002e-15, 0)"/>
  <path d="M 160.46 154.291 L 211.901 154.291 L 211.901 192.312 L 160.46 192.312 L 160.46 154.291 Z" style="fill: rgb(255, 255, 255);" transform="matrix(1, 0, 0, 1, 7.105427357601002e-15, 0)"/>
  <path data-name="original" d="M 149.061 162.414 L 149.061 193.833 L 211.901 193.833 L 211.901 130.993 L 149.061 130.993 L 149.061 162.414 Z M 199.7 159.9 C 201.204 160.249 202.574 161.037 203.63 162.161 C 204.214 162.767 204.719 163.443 205.138 164.173 C 205.138 164.254 202.424 166.088 200.771 167.113 C 200.71 167.153 200.469 166.894 200.202 166.495 C 199.589 165.437 198.474 164.766 197.25 164.72 C 195.346 164.59 194.119 165.592 194.129 167.235 C 194.113 167.644 194.206 168.051 194.4 168.411 C 194.817 169.28 195.596 169.798 198.041 170.855 C 202.539 172.79 204.466 174.067 205.663 175.88 C 207 177.892 207.297 181.14 206.391 183.542 C 205.385 186.156 202.921 187.931 199.438 188.52 C 197.848 188.7 196.239 188.685 194.652 188.469 C 192.219 188.069 189.979 186.9 188.258 185.136 C 187.679 184.497 186.553 182.832 186.624 182.713 C 186.807 182.576 187.001 182.454 187.202 182.346 L 189.531 181.059 L 191.334 180.012 L 191.712 180.571 C 192.348 181.48 193.156 182.257 194.093 182.854 C 196.105 183.91 198.851 183.763 200.207 182.542 C 201.147 181.619 201.293 180.155 200.554 179.063 C 200.05 178.366 199.045 177.776 196.236 176.549 C 192.995 175.153 191.596 174.286 190.318 172.91 C 189.522 172.002 188.932 170.928 188.595 169.768 C 188.343 168.442 188.305 167.083 188.484 165.747 C 189.153 162.614 191.501 160.428 194.928 159.779 C 196.515 159.582 198.125 159.627 199.7 159.91 L 199.7 159.9 Z M 184.949 162.534 L 184.949 165.109 L 176.79 165.109 L 176.79 188.348 L 171.005 188.348 L 171.005 165.103 L 162.826 165.103 L 162.826 162.589 C 162.799 161.723 162.82 160.855 162.885 159.991 C 162.926 159.944 167.914 159.944 173.946 159.944 L 184.92 159.944 L 184.949 162.534 Z" style="stroke-width: 0px;" fill="#007acc" transform="matrix(1, 0, 0, 1, 7.105427357601002e-15, 0)"/>
</svg>