<svg viewBox="212.564 159.622 24 24" xmlns="http://www.w3.org/2000/svg">
  <path d="M 231.564 159.622 L 217.564 159.622 C 214.803 159.622 212.564 161.861 212.564 164.622 L 212.564 178.622 C 212.564 181.383 214.803 183.622 217.564 183.622 L 231.564 183.622 C 234.326 183.622 236.564 181.383 236.564 178.622 L 236.564 164.622 C 236.564 161.861 234.326 159.622 231.564 159.622 Z M 220.564 178.622 L 217.564 178.622 L 217.564 167.622 L 220.564 167.622 L 220.564 178.622 Z M 219.064 166.354 C 218.098 166.354 217.314 165.564 217.314 164.59 C 217.314 163.616 218.098 162.826 219.064 162.826 C 220.03 162.826 220.814 163.616 220.814 164.59 C 220.814 165.564 220.031 166.354 219.064 166.354 Z M 232.564 178.622 L 229.564 178.622 L 229.564 173.018 C 229.564 169.65 225.564 169.905 225.564 173.018 L 225.564 178.622 L 222.564 178.622 L 222.564 167.622 L 225.564 167.622 L 225.564 169.387 C 226.96 166.801 232.564 166.61 232.564 171.863 L 232.564 178.622 Z" fill="#111111" transform="matrix(1, 0, 0, 1, -2.842170943040401e-14, 0)"/>
  <rect x="214.634" y="161.704" width="19.413" height="20.252" style="fill: rgba(255, 0, 0, 0); stroke: rgba(0, 0, 0, 0);" transform="matrix(1, 0, 0, 1, -2.842170943040401e-14, 0)"/>
</svg>