<?xml version="1.0" ?>
<svg viewBox="59.476 77.133 340.524 255.393" xmlns="http://www.w3.org/2000/svg">
<rect x="60.476" y="110.597" width="339.524" height="173.842"
                    style="stroke: rgba(0, 0, 0, 0); fill: rgba(255, 0, 0, 0);"
                    transform="matrix(0.9999999999999999, 0, 0, 0.9999999999999999, 0, 0)" />
                <path
                    d="M 229.738 268.678 C 218.744 268.678 207.75 265.072 198.373 257.764 L 59.476 149.76 L 59.476 300.602 C 59.476 318.227 73.769 332.526 91.4 332.526 L 368.076 332.526 C 385.707 332.526 400 318.233 400 300.602 L 400 149.76 L 261.13 257.837 C 251.752 265.086 240.712 268.678 229.738 268.678 Z M 70.31 131.204 L 211.441 241.01 C 222.209 249.39 237.293 249.39 248.061 241.01 L 389.192 131.204 C 395.411 125.884 400 117.703 400 109.057 C 400 91.426 385.701 77.133 368.076 77.133 L 91.4 77.133 C 73.769 77.133 59.476 91.426 59.476 109.057 C 59.476 117.703 63.473 125.884 70.31 131.204 Z">
                    </svg>