<?xml version="1.0" encoding="UTF-8"?>
<svg version="1.1" xmlns="http://www.w3.org/2000/svg" width="512" height="512">
<path d="M0 0 C1.27373795 -0.00807831 1.27373795 -0.00807831 2.57320797 -0.01631981 C5.39963311 -0.03055094 8.2255867 -0.02350768 11.05203247 -0.01637268 C13.08622614 -0.02207881 15.12041661 -0.02904401 17.15460205 -0.03717041 C22.66706695 -0.0550908 28.17937256 -0.05393541 33.69185781 -0.04822803 C38.29912684 -0.04513433 42.90636535 -0.05123071 47.51363003 -0.05726677 C58.38583174 -0.07130695 69.25795486 -0.06975512 80.13015747 -0.05836487 C91.33418211 -0.04688612 102.53796732 -0.06095651 113.74196041 -0.08776134 C123.37278866 -0.10993702 133.00354185 -0.11655143 142.63439381 -0.11068493 C148.38140098 -0.10731841 154.1282547 -0.10971024 159.87524033 -0.12693596 C165.28112972 -0.1424325 170.68666519 -0.13841926 176.09254074 -0.11963081 C178.07179193 -0.11595236 180.05106949 -0.11903163 182.03029633 -0.1295166 C194.34209105 -0.1897379 205.18344489 -0.18502764 214.74002075 8.6728363 C219.17170722 13.84706599 221.32375696 19.99106856 221.3626709 26.73034668 C221.37127136 27.83910156 221.37987183 28.94785645 221.38873291 30.09020996 C221.39512283 31.91593788 221.39512283 31.91593788 221.40164185 33.77854919 C221.40981934 35.06014923 221.41799683 36.34174927 221.42642212 37.66218567 C221.45262156 41.91571455 221.46795244 46.16925313 221.48220825 50.4228363 C221.48756969 51.88960208 221.4929472 53.35636781 221.49834061 54.82313347 C221.51997055 60.92844446 221.53870377 67.03375284 221.549963 73.13909245 C221.56617835 81.8732884 221.59929546 90.60703782 221.65636384 99.34106547 C221.69516156 105.48985126 221.71460753 111.63851815 221.71988356 117.78742307 C221.72352502 121.45549111 221.73541532 125.12308267 221.7679863 128.79101753 C221.80387329 132.8912944 221.79967128 136.99062177 221.79226685 141.09104919 C221.80867218 142.29403152 221.82507751 143.49701385 221.84197998 144.7364502 C221.77647678 153.62268103 219.68992459 160.05399874 214.103302 167.0087738 C203.93607881 175.87886533 194.07203768 175.81858354 181.20877075 175.38768005 C181.03196777 176.43411682 181.03196777 176.43411682 180.85159302 177.50169373 C180.14508807 180.67358698 179.10210438 183.53518985 177.9236145 186.5634613 C177.25169067 188.29886169 177.25169067 188.29886169 176.56619263 190.06932068 C175.8633313 191.86659607 175.8633313 191.86659607 175.14627075 193.70018005 C174.67382935 194.91769958 174.20138794 196.13521912 173.71463013 197.38963318 C172.54962314 200.39040875 171.38088287 203.38967421 170.20877075 206.38768005 C172.53152955 208.71043885 174.5814946 209.49740175 177.58377075 210.82518005 C190.93854 217.39020484 201.87647637 229.47560373 207.20877075 243.38768005 C207.48821979 245.42818531 207.75885006 247.46991505 208.02127075 249.51268005 C208.68984123 252.55234352 209.21756098 254.62243573 211.73806763 256.56834412 C215.07620716 258.50012161 218.58459586 260.00349979 222.118927 261.53611755 C234.57371263 266.9452815 243.25910955 278.0747034 248.9548645 290.1025238 C254.49606676 304.62012847 254.49944651 319.05589536 248.99002075 333.60643005 C244.73192859 342.78498427 238.80550579 350.05714075 230.39627075 355.70018005 C225.48156432 359.30769341 224.67993867 363.30647637 223.212677 369.04393005 C219.59046217 381.10858335 209.67751697 391.04197906 198.89627075 397.10643005 C183.15597257 404.6105257 164.80361462 406.01265526 148.20877075 400.38768005 C146.66968873 399.65396037 145.14572753 398.88681262 143.64627075 398.07518005 C142.51189575 397.51830505 141.37752075 396.96143005 140.20877075 396.38768005 C136.87421737 397.53038271 134.57859096 399.71346721 131.95877075 402.01268005 C115.89406202 415.00619447 95.65748248 420.47232311 75.20877075 419.38768005 C74.54877075 419.05768005 73.88877075 418.72768005 73.20877075 418.38768005 C72.68850116 429.90587076 73.66772249 438.21262046 78.8454895 448.7040863 C79.39849731 449.83717224 79.95150513 450.97025818 80.52127075 452.13768005 C81.05365356 453.1637738 81.58603638 454.18986755 82.134552 455.24705505 C83.44661689 459.08305568 83.15618632 461.47667391 82.20877075 465.38768005 C78.04770819 470.84907467 71.02260929 475.14296755 64.20877075 476.38768005 C54.8191923 477.22751038 47.33097735 476.15125258 39.64627075 470.50486755 C26.25814336 459.11679578 18.99861846 444.09370518 13.93533325 427.58299255 C13.40723452 425.43643591 13.40723452 425.43643591 12.20877075 424.38768005 C10.82434255 424.65533617 9.45093407 424.98000516 8.08377075 425.32518005 C-9.09705332 428.90349719 -24.90811378 425.28293744 -39.79122925 416.38768005 C-52.80329834 407.54614593 -61.74074856 394.95313658 -65.39865112 379.58958435 C-66.10762152 375.61308934 -66.12499475 371.66729854 -66.10372925 367.63768005 C-66.10896606 366.75805603 -66.11420288 365.87843201 -66.11959839 364.97215271 C-66.07368636 359.82527188 -65.47000414 355.65604381 -63.72872925 350.76268005 C-62.77769459 348.04615105 -62.77769459 348.04615105 -62.79122925 345.38768005 C-64.64218201 342.45700485 -66.78635246 340.33286345 -69.2951355 337.9462738 C-78.95117151 328.04845912 -81.29615041 313.77478263 -81.21310425 300.51853943 C-80.79077036 286.50372264 -75.08313925 273.08757753 -64.79122925 263.38768005 C-59.85086803 259.43216209 -55.04357107 255.86849785 -48.79122925 254.38768005 C-48.87372925 253.48018005 -48.95622925 252.57268005 -49.04122925 251.63768005 C-48.99688153 240.66162067 -42.5239166 228.93944087 -35.381073 220.8837738 C-24.78015917 210.90797529 -11.56418965 204.03932112 3.16189575 204.40330505 C6.336929 204.50649363 9.50571824 204.64030091 12.67752075 204.81736755 C15.62569263 204.89884969 18.30437138 204.90582513 21.20877075 204.38768005 C24.16704581 201.75858792 24.16704581 201.75858792 26.20877075 198.38768005 C40.5013365 186.81126376 55.77279672 181.83376341 74.20877075 183.38768005 C93.36156528 186.42347885 108.51244979 195.94853638 120.20877075 211.38768005 C121.19877075 210.81018005 122.18877075 210.23268005 123.20877075 209.63768005 C129.78069507 206.30409525 137.08137953 205.05073801 144.20877075 203.38768005 C140.57877075 194.47768005 136.94877075 185.56768005 133.20877075 176.38768005 C129.05041626 176.37309753 124.89206177 176.35851501 120.60769653 176.3434906 C106.85733591 176.29311843 93.10709223 176.2266677 79.35684395 176.15196514 C71.0213663 176.10707146 62.68593076 176.0676421 54.35037231 176.04124451 C47.08191358 176.01821223 39.81358883 175.98475615 32.54523647 175.93897849 C28.69957255 175.9151165 24.85404076 175.89634187 21.0083046 175.89006615 C17.3819314 175.88398327 13.75589594 175.86386933 10.12964821 175.83340454 C8.17783676 175.8205411 6.2259462 175.82218546 4.27409363 175.82440186 C-5.74194739 175.71827399 -15.24474717 174.5298863 -22.79122925 167.38768005 C-27.69232063 161.82181298 -30.02943286 156.14217654 -30.06538391 148.64628601 C-30.0803466 146.96434647 -30.0803466 146.96434647 -30.09561157 145.24842834 C-30.09627625 144.03271149 -30.09694092 142.81699463 -30.09762573 141.56443787 C-30.10594925 140.27264618 -30.11427277 138.98085449 -30.12284851 137.6499176 C-30.1447283 134.11664749 -30.15358375 130.5834639 -30.15867496 127.05013371 C-30.16232672 124.83854979 -30.16857106 122.62698825 -30.17567635 120.4154129 C-30.20014967 112.68805961 -30.21321783 104.96077323 -30.21676636 97.23338318 C-30.22039844 90.04987186 -30.25027543 82.86678861 -30.29217094 75.68340802 C-30.32695648 69.50057695 -30.34231623 63.31788717 -30.34301239 57.13495898 C-30.3438025 53.44907417 -30.35241711 49.76362571 -30.38101006 46.07784271 C-30.41223381 41.96109214 -30.40309184 37.84535054 -30.39059448 33.72850037 C-30.40542877 32.52088043 -30.42026306 31.3132605 -30.43554688 30.06904602 C-30.36178298 21.51250979 -28.71872916 14.68499008 -22.83067989 8.24252701 C-16.187965 1.81360309 -8.98637976 -0.06931342 0 0 Z " fill="#FCCB99" transform="translate(177.79122924804688,17.612319946289063)"/>
<path d="M0 0 C6.22897573 5.30025796 12.13679061 11.28519725 13.71875 19.578125 C14.16263983 29.13562801 11.07631211 38.39014097 5.90625 46.33203125 C3.94695666 49.36992547 2.76535603 51.30367606 3.15625 54.95703125 C3.97802075 58.22924877 3.97802075 58.22924877 7.21875 59.95703125 C10.22168071 60.0265169 10.22168071 60.0265169 13.21875 58.95703125 C20.88323044 50.60686171 26.47418235 38.32244062 26.125 26.88671875 C26.09256354 23.58630885 26.13867516 21.08474798 27.21875 17.95703125 C37.24728222 10.09239363 50.03416125 9.52874303 62.21875 10.95703125 C74.38701262 13.79434858 84.39950746 21.29766115 91.59375 31.39453125 C95.97816856 38.54870997 98.63996712 45.28544492 98.75 53.73046875 C99.41133646 56.87181693 100.71939297 57.98873491 103.21875 59.95703125 C105.86620334 61.03706531 105.86620334 61.03706531 108.78125 61.76953125 C120.53944359 65.46455433 130.10937142 72.32148283 136.0078125 83.28125 C141.41187433 94.71685952 143.5545959 105.32754468 139.28125 117.70703125 C135.80156893 125.80322102 129.42686952 134.2717531 121.21875 137.95703125 C114.75149968 139.10157899 109.79518802 137.96914719 104.2578125 134.515625 C99.53266224 130.90387221 95.93475412 126.23815036 93.21875 120.95703125 C93.21875 120.29703125 93.21875 119.63703125 93.21875 118.95703125 C88.00226897 118.51394474 88.00226897 118.51394474 83.21875 120.08203125 C81.61877619 123.08198215 81.66076686 124.5471343 82.21875 127.95703125 C86.42897971 137.47789162 93.73911098 144.90240667 103.22265625 149.21484375 C106.50437313 150.43505159 109.7962265 151.22363336 113.21875 151.95703125 C110.89457596 161.02130999 104.9524037 168.78410481 97.21875 173.95703125 C85.24424349 179.9676418 71.64438464 182.41653233 58.53125 178.64453125 C56.33203125 177.90625 56.33203125 177.90625 54.21875 176.95703125 C53.30480469 176.57289063 52.39085937 176.18875 51.44921875 175.79296875 C50.71316406 175.18710937 49.97710937 174.58125 49.21875 173.95703125 C48.90625 170.734375 48.90625 170.734375 49.21875 166.89453125 C49.54082706 159.79431259 48.51541716 154.71822656 44.21875 148.95703125 C39.67563268 143.99996247 35.33667877 141.16841625 28.53125 140.70703125 C25.14017442 140.60101596 25.14017442 140.60101596 23.21875 142.95703125 C22.97621187 145.16776102 22.97621187 145.16776102 23.09375 147.58203125 C23.11179687 148.39929688 23.12984375 149.2165625 23.1484375 150.05859375 C23.17164063 150.68507813 23.19484375 151.3115625 23.21875 151.95703125 C24.5490625 152.32828125 24.5490625 152.32828125 25.90625 152.70703125 C30.03687188 154.26575649 32.92570597 156.17139902 35.53125 159.76953125 C36.99266961 164.41950274 36.65126218 167.92276299 34.78125 172.39453125 C27.57211014 183.67620274 13.49584048 191.37980105 0.77514648 194.56982422 C-7.60463359 196.22068964 -15.66661694 196.02670586 -24.16796875 195.703125 C-25.77091797 195.67025391 -25.77091797 195.67025391 -27.40625 195.63671875 C-28.36789063 195.60304199 -29.32953125 195.56936523 -30.3203125 195.53466797 C-32.91722088 195.72835782 -32.91722088 195.72835782 -34.55786133 197.8215332 C-40.70482891 208.55143251 -40.13342608 222.84129086 -37.09375 234.39453125 C-35.35353024 239.90210848 -33.0560775 244.22672486 -29.78125 248.95703125 C-29.78125 249.61703125 -29.78125 250.27703125 -29.78125 250.95703125 C-34.32854891 253.30402423 -38.7787216 253.89552904 -43.78125 252.95703125 C-46.89086011 251.39360436 -49.26812387 249.34630722 -51.78125 246.95703125 C-52.37808594 246.41175781 -52.97492188 245.86648438 -53.58984375 245.3046875 C-62.84185327 235.88783148 -67.93459337 220.73650862 -70.3359375 208.01953125 C-71.81955448 200.70306396 -74.68121998 197.93583312 -80.39453125 193.2734375 C-85.16291197 188.64553281 -86.87294058 182.30148703 -87.21875 175.76953125 C-86.25620831 167.38166793 -83.0449181 161.66505137 -76.78125 155.95703125 C-71.50841942 151.91149744 -66.23536767 151.34758519 -59.69921875 151.5546875 C-55.26927936 152.16550913 -51.0221417 153.71613955 -47.78125 156.95703125 C-44.19579856 157.35541474 -42.3832151 157.35834132 -39.34375 155.33203125 C-37.54180143 153.02004557 -37.54180143 153.02004557 -37.59375 150.01953125 C-39.47267088 145.1738932 -42.89727695 143.2938067 -47.49780273 141.16137695 C-52.63098423 139.02175652 -57.18548982 138.44638367 -62.71875 138.51953125 C-63.90452637 138.52871582 -63.90452637 138.52871582 -65.11425781 138.53808594 C-71.08163206 138.6981682 -75.70592601 139.68373241 -80.78125 142.95703125 C-81.791875 143.51390625 -82.8025 144.07078125 -83.84375 144.64453125 C-93.02266122 151.87048263 -98.63638947 160.4870896 -100.22265625 172.22265625 C-100.6228589 182.91194002 -97.60126639 193.01914894 -91.78125 201.95703125 C-103.02223372 205.42229691 -114.20465814 202.7281337 -124.36328125 197.671875 C-136.09012461 191.20499825 -142.94386417 182.23765657 -147.78125 169.95703125 C-150.11774504 158.97140546 -149.01856594 148.21316036 -143.2734375 138.375 C-137.24325776 130.14310347 -128.87548556 123.23843045 -118.78125 120.95703125 C-114.84106815 120.57534848 -110.89557452 120.40933303 -106.93774414 120.37158203 C-102.73157766 120.42034037 -102.73157766 120.42034037 -99.06616211 118.65258789 C-96.91454599 115.81333766 -97.35433292 113.37236786 -97.78125 109.95703125 C-100.12331487 107.47145751 -101.59115539 106.98266977 -104.99609375 106.5234375 C-122.75074312 106.50480723 -137.0165526 112.53902934 -149.78125 124.95703125 C-158.08618813 117.36394496 -163.07421936 107.76663305 -163.9765625 96.5234375 C-164.4323744 85.81185781 -160.77845645 76.09331782 -153.78125 67.95703125 C-145.20599916 59.95703125 -145.20599916 59.95703125 -140.78125 59.95703125 C-139.2734375 61.4609375 -139.2734375 61.4609375 -137.65625 63.51953125 C-130.43643105 72.07130841 -121.83305584 77.6954648 -110.78125 79.95703125 C-109.09736583 80.09535981 -107.40802968 80.17645605 -105.71875 80.20703125 C-104.86152344 80.2328125 -104.00429687 80.25859375 -103.12109375 80.28515625 C-100.73608248 80.1366017 -100.73608248 80.1366017 -98.9921875 78.6640625 C-97.00272802 75.8595664 -97.47998944 73.27089745 -97.78125 69.95703125 C-100.34658564 67.39169561 -101.84387767 67.52394579 -105.40625 67.08203125 C-116.02139507 65.40129995 -122.24954927 60.55872919 -129.78125 52.95703125 C-132.43111893 48.98222785 -131.97041439 46.69975617 -131.44921875 42.0703125 C-129.46967867 32.84403505 -124.18422199 23.85455976 -116.49609375 18.30859375 C-111.18029757 14.94000575 -105.84758778 12.59753894 -99.78125 10.95703125 C-99.15605469 10.77140625 -98.53085938 10.58578125 -97.88671875 10.39453125 C-90.7078428 8.90281677 -83.66136239 9.75539529 -76.78125 11.95703125 C-73.6961755 12.54085085 -73.6961755 12.54085085 -70.78125 11.95703125 C-68.34436762 9.94660329 -66.44030055 7.81870915 -64.5234375 5.3125 C-48.48732365 -14.98463838 -19.66642594 -14.44598422 0 0 Z " fill="#F298BF" transform="translate(274.78125,226.04296875)"/>
<path d="M0 0 C1.27373795 -0.00807831 1.27373795 -0.00807831 2.57320797 -0.01631981 C5.39963311 -0.03055094 8.2255867 -0.02350768 11.05203247 -0.01637268 C13.08622614 -0.02207881 15.12041661 -0.02904401 17.15460205 -0.03717041 C22.66706695 -0.0550908 28.17937256 -0.05393541 33.69185781 -0.04822803 C38.29912684 -0.04513433 42.90636535 -0.05123071 47.51363003 -0.05726677 C58.38583174 -0.07130695 69.25795486 -0.06975512 80.13015747 -0.05836487 C91.33418211 -0.04688612 102.53796732 -0.06095651 113.74196041 -0.08776134 C123.37278866 -0.10993702 133.00354185 -0.11655143 142.63439381 -0.11068493 C148.38140098 -0.10731841 154.1282547 -0.10971024 159.87524033 -0.12693596 C165.28112972 -0.1424325 170.68666519 -0.13841926 176.09254074 -0.11963081 C178.07179193 -0.11595236 180.05106949 -0.11903163 182.03029633 -0.1295166 C194.34209105 -0.1897379 205.18344489 -0.18502764 214.74002075 8.6728363 C219.17170722 13.84706599 221.32375696 19.99106856 221.3626709 26.73034668 C221.37127136 27.83910156 221.37987183 28.94785645 221.38873291 30.09020996 C221.39512283 31.91593788 221.39512283 31.91593788 221.40164185 33.77854919 C221.40981934 35.06014923 221.41799683 36.34174927 221.42642212 37.66218567 C221.45262156 41.91571455 221.46795244 46.16925313 221.48220825 50.4228363 C221.48756969 51.88960208 221.4929472 53.35636781 221.49834061 54.82313347 C221.51997055 60.92844446 221.53870377 67.03375284 221.549963 73.13909245 C221.56617835 81.8732884 221.59929546 90.60703782 221.65636384 99.34106547 C221.69516156 105.48985126 221.71460753 111.63851815 221.71988356 117.78742307 C221.72352502 121.45549111 221.73541532 125.12308267 221.7679863 128.79101753 C221.80387329 132.8912944 221.79967128 136.99062177 221.79226685 141.09104919 C221.80867218 142.29403152 221.82507751 143.49701385 221.84197998 144.7364502 C221.77647678 153.62268103 219.68992459 160.05399874 214.103302 167.0087738 C203.93607881 175.87886533 194.07203768 175.81858354 181.20877075 175.38768005 C181.03196777 176.43411682 181.03196777 176.43411682 180.85159302 177.50169373 C180.14508807 180.67358698 179.10210438 183.53518985 177.9236145 186.5634613 C177.25169067 188.29886169 177.25169067 188.29886169 176.56619263 190.06932068 C175.8633313 191.86659607 175.8633313 191.86659607 175.14627075 193.70018005 C174.67382935 194.91769958 174.20138794 196.13521912 173.71463013 197.38963318 C172.54962314 200.39040875 171.38088287 203.38967421 170.20877075 206.38768005 C172.53152955 208.71043885 174.5814946 209.49740175 177.58377075 210.82518005 C190.93854 217.39020484 201.87647637 229.47560373 207.20877075 243.38768005 C207.48821979 245.42818531 207.75885006 247.46991505 208.02127075 249.51268005 C208.68984123 252.55234352 209.21756098 254.62243573 211.73806763 256.56834412 C215.07620716 258.50012161 218.58459586 260.00349979 222.118927 261.53611755 C234.57371263 266.9452815 243.25910955 278.0747034 248.9548645 290.1025238 C254.49606676 304.62012847 254.49944651 319.05589536 248.99002075 333.60643005 C244.73192859 342.78498427 238.80550579 350.05714075 230.39627075 355.70018005 C225.48156432 359.30769341 224.67993867 363.30647637 223.212677 369.04393005 C219.59046217 381.10858335 209.67751697 391.04197906 198.89627075 397.10643005 C183.15597257 404.6105257 164.80361462 406.01265526 148.20877075 400.38768005 C146.66968873 399.65396037 145.14572753 398.88681262 143.64627075 398.07518005 C142.51189575 397.51830505 141.37752075 396.96143005 140.20877075 396.38768005 C136.87421737 397.53038271 134.57859096 399.71346721 131.95877075 402.01268005 C115.89406202 415.00619447 95.65748248 420.47232311 75.20877075 419.38768005 C74.54877075 419.05768005 73.88877075 418.72768005 73.20877075 418.38768005 C72.68850116 429.90587076 73.66772249 438.21262046 78.8454895 448.7040863 C79.39849731 449.83717224 79.95150513 450.97025818 80.52127075 452.13768005 C81.05365356 453.1637738 81.58603638 454.18986755 82.134552 455.24705505 C83.44661689 459.08305568 83.15618632 461.47667391 82.20877075 465.38768005 C78.04770819 470.84907467 71.02260929 475.14296755 64.20877075 476.38768005 C54.8191923 477.22751038 47.33097735 476.15125258 39.64627075 470.50486755 C26.25814336 459.11679578 18.99861846 444.09370518 13.93533325 427.58299255 C13.40723452 425.43643591 13.40723452 425.43643591 12.20877075 424.38768005 C10.82434255 424.65533617 9.45093407 424.98000516 8.08377075 425.32518005 C-9.09705332 428.90349719 -24.90811378 425.28293744 -39.79122925 416.38768005 C-52.80329834 407.54614593 -61.74074856 394.95313658 -65.39865112 379.58958435 C-66.10762152 375.61308934 -66.12499475 371.66729854 -66.10372925 367.63768005 C-66.10896606 366.75805603 -66.11420288 365.87843201 -66.11959839 364.97215271 C-66.07368636 359.82527188 -65.47000414 355.65604381 -63.72872925 350.76268005 C-62.77769459 348.04615105 -62.77769459 348.04615105 -62.79122925 345.38768005 C-64.64218201 342.45700485 -66.78635246 340.33286345 -69.2951355 337.9462738 C-78.95117151 328.04845912 -81.29615041 313.77478263 -81.21310425 300.51853943 C-80.79077036 286.50372264 -75.08313925 273.08757753 -64.79122925 263.38768005 C-59.85086803 259.43216209 -55.04357107 255.86849785 -48.79122925 254.38768005 C-48.87372925 253.48018005 -48.95622925 252.57268005 -49.04122925 251.63768005 C-48.99688153 240.66162067 -42.5239166 228.93944087 -35.381073 220.8837738 C-24.78015917 210.90797529 -11.56418965 204.03932112 3.16189575 204.40330505 C6.336929 204.50649363 9.50571824 204.64030091 12.67752075 204.81736755 C15.62569263 204.89884969 18.30437138 204.90582513 21.20877075 204.38768005 C24.16704581 201.75858792 24.16704581 201.75858792 26.20877075 198.38768005 C40.5013365 186.81126376 55.77279672 181.83376341 74.20877075 183.38768005 C93.36156528 186.42347885 108.51244979 195.94853638 120.20877075 211.38768005 C121.19877075 210.81018005 122.18877075 210.23268005 123.20877075 209.63768005 C129.78069507 206.30409525 137.08137953 205.05073801 144.20877075 203.38768005 C140.57877075 194.47768005 136.94877075 185.56768005 133.20877075 176.38768005 C129.05041626 176.37309753 124.89206177 176.35851501 120.60769653 176.3434906 C106.85733591 176.29311843 93.10709223 176.2266677 79.35684395 176.15196514 C71.0213663 176.10707146 62.68593076 176.0676421 54.35037231 176.04124451 C47.08191358 176.01821223 39.81358883 175.98475615 32.54523647 175.93897849 C28.69957255 175.9151165 24.85404076 175.89634187 21.0083046 175.89006615 C17.3819314 175.88398327 13.75589594 175.86386933 10.12964821 175.83340454 C8.17783676 175.8205411 6.2259462 175.82218546 4.27409363 175.82440186 C-5.74194739 175.71827399 -15.24474717 174.5298863 -22.79122925 167.38768005 C-27.69232063 161.82181298 -30.02943286 156.14217654 -30.06538391 148.64628601 C-30.0803466 146.96434647 -30.0803466 146.96434647 -30.09561157 145.24842834 C-30.09627625 144.03271149 -30.09694092 142.81699463 -30.09762573 141.56443787 C-30.10594925 140.27264618 -30.11427277 138.98085449 -30.12284851 137.6499176 C-30.1447283 134.11664749 -30.15358375 130.5834639 -30.15867496 127.05013371 C-30.16232672 124.83854979 -30.16857106 122.62698825 -30.17567635 120.4154129 C-30.20014967 112.68805961 -30.21321783 104.96077323 -30.21676636 97.23338318 C-30.22039844 90.04987186 -30.25027543 82.86678861 -30.29217094 75.68340802 C-30.32695648 69.50057695 -30.34231623 63.31788717 -30.34301239 57.13495898 C-30.3438025 53.44907417 -30.35241711 49.76362571 -30.38101006 46.07784271 C-30.41223381 41.96109214 -30.40309184 37.84535054 -30.39059448 33.72850037 C-30.40542877 32.52088043 -30.42026306 31.3132605 -30.43554688 30.06904602 C-30.36178298 21.51250979 -28.71872916 14.68499008 -22.83067989 8.24252701 C-16.187965 1.81360309 -8.98637976 -0.06931342 0 0 Z M-12.79122925 19.38768005 C-16.82766296 24.83480947 -16.22098001 30.95274791 -16.19528198 37.44822693 C-16.20214523 38.65866165 -16.20900848 39.86909637 -16.21607971 41.11621094 C-16.23121366 44.42419503 -16.23285071 47.73161414 -16.22713733 51.03959084 C-16.2240402 53.80551599 -16.2301436 56.57139047 -16.23617607 59.33730841 C-16.25020609 65.86374497 -16.24867229 72.39005059 -16.23727417 78.91648865 C-16.22578928 85.6410696 -16.23987795 92.36525189 -16.26667064 99.08978033 C-16.28884523 104.87256595 -16.29546125 110.65522659 -16.28959423 116.4380517 C-16.28622822 119.88786529 -16.28861587 123.33742325 -16.30584526 126.78720093 C-16.32422059 130.6340034 -16.31010916 134.48031732 -16.29293823 138.32713318 C-16.3026062 139.46497757 -16.31227417 140.60282196 -16.32223511 141.77514648 C-16.25025509 149.47037472 -14.98644482 153.22373176 -9.42420959 158.73153687 C-3.67441402 161.35265888 2.11232762 160.93247754 8.3364563 160.88597107 C9.78073689 160.88979687 11.22501368 160.89541814 12.66928101 160.9026947 C15.77138358 160.91462274 18.87314756 160.91417391 21.97525597 160.90410042 C26.87880483 160.88852039 31.78200672 160.90222941 36.68553162 160.9201355 C46.20415406 160.95092473 55.72266996 160.95245699 65.24133301 160.95048523 C77.36849687 160.94909125 89.49557945 160.95938044 101.62268287 160.99906296 C106.49919015 161.01401791 111.37538989 161.01371152 116.25190198 161.00158513 C119.28071251 160.99688431 122.30940452 161.00437767 125.3381958 161.01512909 C126.74470415 161.01754105 128.1512321 161.01477942 129.55771828 161.00652122 C131.47435 160.99593847 133.39106136 161.00535928 135.30769348 161.01586914 C136.91789887 161.01498968 136.91789887 161.01498968 138.56063366 161.01409245 C141.20877075 161.38768005 141.20877075 161.38768005 142.98943806 162.71850491 C144.88577621 165.31444982 145.92979392 168.22398322 147.056427 171.20799255 C147.31379135 171.86725739 147.5711557 172.52652222 147.83631897 173.20576477 C148.65549411 175.30524208 149.46444121 177.40843014 150.27127075 179.51268005 C151.08201299 181.62392295 151.89507315 183.73407742 152.7169342 185.84101868 C153.22774179 187.1505744 153.73214479 188.46264968 154.22953796 189.77735901 C155.41720915 193.24933366 155.41720915 193.24933366 158.20877075 195.38768005 C158.55657593 194.49983826 158.9043811 193.61199646 159.26272583 192.69725037 C160.55926353 189.39238033 161.86388614 186.09075168 163.17092896 182.7900238 C163.73465166 181.36315635 164.29620133 179.93542834 164.85549927 178.50682068 C165.66151244 176.4491586 166.47538449 174.3947555 167.290802 172.34080505 C167.66130424 171.3874527 167.66130424 171.3874527 168.03929138 170.4148407 C170.6667909 163.84319801 170.6667909 163.84319801 173.20877075 161.38768005 C175.65725708 160.90525818 175.65725708 160.90525818 178.540802 160.91893005 C179.58687622 160.90475037 180.63295044 160.89057068 181.71072388 160.8759613 C183.90603652 160.88373232 186.10134903 160.89154438 188.29666138 160.8993988 C196.47341992 160.79576834 196.47341992 160.79576834 203.20877075 156.38768005 C208.14336764 150.82434267 207.7777049 145.54999615 207.72634888 138.34300232 C207.73335815 137.13417389 207.74036743 135.92534546 207.74758911 134.67988586 C207.76214841 131.37580325 207.75877772 128.07272646 207.74607277 124.76870084 C207.73591461 121.30329661 207.74534645 117.83793407 207.75161743 114.37252808 C207.75888667 108.55287502 207.74932635 102.73342526 207.73025513 96.9138031 C207.70849777 90.19717904 207.715532 83.48104092 207.73756075 76.76442868 C207.7557478 70.98670928 207.75825672 65.20913569 207.74780607 59.4313969 C207.74158787 55.98548008 207.74068877 52.53979118 207.75395203 49.09388924 C207.76771579 45.24965346 207.74860686 41.40595612 207.72634888 37.56175232 C207.7344458 36.4275032 207.74254272 35.29325409 207.75088501 34.12463379 C207.6820675 27.70174794 207.28467181 23.47960952 203.20877075 18.38768005 C198.44795347 15.37345103 194.28079033 14.95720962 188.7829895 15 C187.53208275 14.99192169 187.53208275 14.99192169 186.25590515 14.98368019 C183.46920904 14.96940407 180.68298818 14.97650343 177.89627075 14.98362732 C175.89529031 14.97792362 173.89431312 14.97095937 171.89334106 14.96282959 C166.46366769 14.94488439 161.0341558 14.94606899 155.60446167 14.95177197 C151.07147558 14.95486143 146.53852061 14.94877418 142.00553894 14.94273323 C131.31283989 14.92868553 120.62022074 14.93025174 109.92752075 14.94163513 C98.89500417 14.95312071 87.86273054 14.93903376 76.83024597 14.91223866 C67.35748074 14.89009282 57.88479185 14.88344165 48.41200256 14.88931507 C42.75451845 14.89268801 37.09719014 14.89024691 31.43972778 14.87306404 C26.12087724 14.85761454 20.80238722 14.86152844 15.48355103 14.88036919 C13.53164744 14.88406038 11.57971725 14.88093122 9.62783813 14.8704834 C6.9629923 14.85730825 4.29934611 14.8687898 1.634552 14.88647461 C0.86236832 14.8768696 0.09018463 14.8672646 -0.70539856 14.85736853 C-5.87578732 14.92795777 -8.81006743 16.12049798 -12.79122925 19.38768005 Z M34.58377075 211.25486755 C33.01811951 213.18684104 31.48247348 215.14374189 29.9861145 217.12986755 C28.20877075 219.38768005 28.20877075 219.38768005 26.20877075 220.38768005 C24.18533325 220.30174255 24.18533325 220.30174255 21.83377075 220.01268005 C21.06291138 219.92244568 20.292052 219.8322113 19.49783325 219.73924255 C17.20877075 219.38768005 17.20877075 219.38768005 15.2673645 218.86424255 C4.28300681 216.32137417 -7.26952479 219.31901052 -16.7326355 225.02049255 C-26.11308203 231.25039063 -31.19053351 239.15771073 -34.34591675 249.96580505 C-35.14022678 254.28573683 -35.56548087 257.17047596 -33.1388855 260.9853363 C-25.59799034 269.11919074 -17.80736154 274.67409309 -6.54122925 275.88768005 C-2.79122925 276.38768005 -2.79122925 276.38768005 -0.79122925 278.38768005 C-0.22510514 284.61504526 -0.22510514 284.61504526 -2.03341675 287.08299255 C-5.52173092 289.67209685 -9.6623346 288.8806824 -13.79122925 288.38768005 C-25.52165915 285.79804507 -34.98333606 279.4371954 -42.79122925 270.38768005 C-43.28622925 269.39768005 -43.28622925 269.39768005 -43.79122925 268.38768005 C-50.68286827 269.63503553 -56.17918255 275.08539515 -60.10372925 280.63768005 C-66.20851382 290.67061291 -68.00024072 299.77090778 -66.16622925 311.32518005 C-63.79645701 319.47652428 -59.61227418 327.22422071 -53.79122925 333.38768005 C-52.86310425 332.54205505 -51.93497925 331.69643005 -50.97872925 330.82518005 C-39.61373149 321.152355 -27.23877906 315.31654857 -12.22872925 315.13768005 C-10.27773315 315.09900818 -10.27773315 315.09900818 -8.287323 315.05955505 C-4.6675824 315.3992849 -3.2273308 315.73232936 -0.79122925 318.38768005 C-0.04012321 324.39652835 -0.04012321 324.39652835 -2.07614136 327.08323669 C-5.04803582 329.34356867 -8.75715044 328.79087479 -12.35372925 328.82518005 C-25.14650349 329.26906535 -33.69698096 333.2233305 -42.76779175 342.3837738 C-49.42394829 350.10208298 -52.56367511 359.9624059 -52.04122925 370.1337738 C-50.74909934 381.78313251 -45.36144317 392.0277907 -36.85372925 400.0556488 C-27.79014966 406.95737969 -17.7253024 411.51891001 -6.29122925 411.57518005 C-4.98154175 411.58935974 -3.67185425 411.60353943 -2.32247925 411.6181488 C0.87985907 411.40914663 2.56035113 411.0969917 5.20877075 409.38768005 C4.88263794 408.93779724 4.55650513 408.48791443 4.2204895 408.0243988 C-2.07450313 398.7583182 -4.13239405 388.49460798 -2.79122925 377.38768005 C-0.12682062 366.30528473 5.8545741 357.67569471 15.39627075 351.38768005 C21.38533136 347.8386071 27.1323303 346.99836736 33.95877075 347.01268005 C34.75500854 347.01429138 35.55124634 347.01590271 36.37161255 347.01756287 C44.14963153 347.17925816 49.67813084 349.22606378 56.27127075 353.26268005 C58.78123956 356.01554907 59.28618738 357.67168188 59.20877075 361.38768005 C57.64627075 363.76268005 57.64627075 363.76268005 55.20877075 365.38768005 C51.15520002 366.09264888 49.56042233 365.60142905 46.02127075 363.45018005 C45.09314575 362.76955505 44.16502075 362.08893005 43.20877075 361.38768005 C37.16140646 359.37189196 29.78436167 359.26690233 23.89627075 361.88768005 C17.60495153 365.61004393 12.81722985 371.4116242 10.64627075 378.3993988 C8.97666232 385.98717286 10.71117122 392.55563432 14.20877075 399.38768005 C16.85612955 402.71684123 19.94327011 405.3901115 23.275177 408.0165863 C26.09076606 411.46923793 26.68174368 415.0998237 27.64627075 419.38768005 C31.58931772 435.49392103 37.49610322 449.64839865 50.58377075 460.32518005 C55.45280577 462.29597994 60.32971385 462.00124966 65.27127075 460.38768005 C65.91064575 460.05768005 66.55002075 459.72768005 67.20877075 459.38768005 C66.08262887 456.38463502 64.78547295 453.58222898 63.27127075 450.76268005 C56.92384454 437.99650823 56.68647806 424.54438702 60.259552 410.8759613 C61.29077621 408.17271101 62.21217051 406.48577437 64.20877075 404.38768005 C66.63796997 403.98118591 66.63796997 403.98118591 69.51345825 404.1025238 C70.56573608 404.13128601 71.61801392 404.16004822 72.70217896 404.18968201 C74.37606689 404.25675354 74.37606689 404.25675354 76.08377075 404.32518005 C85.33688095 404.50566132 93.39315943 404.45506391 102.20877075 401.38768005 C103.68410278 400.91201599 103.68410278 400.91201599 105.1892395 400.42674255 C115.90725627 396.51667693 125.30779925 389.46140824 132.20877075 380.38768005 C133.83256652 375.51629274 133.92888066 371.85670426 131.64627075 367.20018005 C128.69872102 363.79916114 126.24889667 362.33292587 122.20877075 360.38768005 C121.54877075 360.38768005 120.88877075 360.38768005 120.20877075 360.38768005 C120.15477339 358.92975121 120.11597899 357.47125294 120.08377075 356.01268005 C120.06056763 355.20057068 120.0373645 354.3884613 120.01345825 353.55174255 C120.20877075 351.38768005 120.20877075 351.38768005 122.20877075 349.38768005 C128.16242526 348.67324151 132.37599556 350.04795736 137.20877075 353.38768005 C141.35311082 357.15865615 145.10277028 361.80095973 146.20877075 367.38768005 C146.44215397 372.4028262 146.38306377 377.37191433 146.20877075 382.38768005 C147.76728831 383.20779317 149.33078792 384.01844218 150.89627075 384.82518005 C152.20144653 385.50387146 152.20144653 385.50387146 153.5329895 386.1962738 C163.73638338 390.73939079 177.04620708 389.27271493 187.306427 385.64549255 C198.21812988 380.91659844 205.52442762 373.25535613 210.20877075 362.38768005 C210.20877075 361.72768005 210.20877075 361.06768005 210.20877075 360.38768005 C209.37474731 360.18014099 208.54072388 359.97260193 207.681427 359.7587738 C195.42469572 356.40326547 186.97451896 350.17173546 180.33377075 339.32518005 C179.08031137 336.05225832 178.745822 333.85979568 179.20877075 330.38768005 C180.20877075 328.51268005 180.20877075 328.51268005 182.20877075 327.38768005 C184.92755338 327.14636799 187.46798185 327.25288716 190.20877075 327.38768005 C190.45627075 328.08893005 190.70377075 328.79018005 190.95877075 329.51268005 C194.06396382 336.65462411 198.51929997 340.9559834 204.95877075 345.20018005 C209.46663627 346.84728476 213.46413033 347.07103252 218.20877075 346.38768005 C221.50614689 344.93963898 221.50614689 344.93963898 224.20877075 342.38768005 C224.78369263 341.90170349 225.3586145 341.41572693 225.95095825 340.9150238 C232.88675608 334.61922449 237.58129734 325.48000909 238.54470825 316.1259613 C238.6916527 303.23893289 234.9596401 291.91697967 226.243927 282.1962738 C218.83685273 275.13745258 209.77993792 270.77222506 199.95095825 268.1259613 C198.20877075 267.38768005 198.20877075 267.38768005 196.20877075 264.38768005 C195.9261074 262.26913249 195.70549687 260.14204688 195.52127075 258.01268005 C194.04969702 247.04379583 188.95336693 237.93996615 180.8767395 230.3915863 C175.75590979 226.54534085 170.06649777 223.94159244 164.20877075 221.38768005 C163.05828247 220.81146912 163.05828247 220.81146912 161.884552 220.22361755 C151.58878409 217.00712948 138.96783826 218.41551207 129.4236145 223.09861755 C127.64740333 224.13239125 125.91875338 225.24769164 124.20877075 226.38768005 C123.78507941 229.19538116 123.51675744 231.87625807 123.33377075 234.70018005 C122.29184552 246.43585589 118.9003034 257.20407414 111.20877075 266.38768005 C108.20877075 268.38768005 108.20877075 268.38768005 105.14627075 268.20018005 C102.20877075 267.38768005 102.20877075 267.38768005 100.20877075 264.38768005 C100.29295085 260.09449525 101.1370475 257.24335165 103.52127075 253.76268005 C108.43669132 246.37526019 111.16717837 236.96646455 110.77908325 228.0790863 C108.85838992 219.01499244 101.60057585 211.53593141 94.20877075 206.38768005 C75.34771508 195.09637089 50.4734814 193.89914193 34.58377075 211.25486755 Z " fill="#010101" transform="translate(177.79122924804688,17.612319946289063)"/>
<path d="M0 0 C1.60294922 0.04060547 1.60294922 0.04060547 3.23828125 0.08203125 C4.04652344 0.11683594 4.85476562 0.15164062 5.6875 0.1875 C5.68988835 0.78587771 5.69227671 1.38425543 5.69473743 2.0007658 C5.75389025 16.56500685 5.82944211 31.12909907 5.92321491 45.69315624 C5.96816806 52.73625886 6.00758376 59.77931096 6.03393555 66.82250977 C6.05937515 73.61773748 6.10028307 80.41273119 6.15068626 87.20781898 C6.16738991 89.80215985 6.17888233 92.39653959 6.18511391 94.99092674 C6.19471666 98.6207378 6.22273148 102.24996954 6.25512695 105.87963867 C6.25297432 107.49372871 6.25297432 107.49372871 6.2507782 109.14042664 C6.23110351 116.21334916 6.23110351 116.21334916 9.6875 122.1875 C13.37064019 124.69454124 17.20267011 124.47720725 21.49554443 124.4659729 C22.68285939 124.4746615 22.68285939 124.4746615 23.89416051 124.48352563 C26.54894765 124.50054353 29.20356114 124.50340367 31.85839844 124.50634766 C33.76044644 124.5156446 35.66249036 124.52581292 37.56452942 124.53678894 C42.73147446 124.56412938 47.89839217 124.57925035 53.06539059 124.59221697 C58.46397479 124.60782981 63.86250305 124.63462591 69.26104736 124.6602478 C79.4854829 124.70706832 89.70992893 124.7437966 99.93441701 124.77692068 C113.74969395 124.82225909 127.56490175 124.88314342 141.38012123 124.94316864 C163.14921286 125.03734151 184.91832407 125.11070565 206.6875 125.1875 C206.6875 87.2375 206.6875 49.2875 206.6875 10.1875 C207.0175 10.1875 207.3475 10.1875 207.6875 10.1875 C207.78099076 26.38181282 207.8515023 42.57603793 207.89474869 58.7705555 C207.91536354 66.29016269 207.94346332 73.80960208 207.98925781 81.32910156 C208.02915883 87.88401874 208.05494065 94.43881438 208.06385398 100.99384964 C208.06906329 104.46392927 208.08128394 107.93366123 208.11042023 111.4036293 C208.14270193 115.27973132 208.1434573 119.15549493 208.14160156 123.03173828 C208.15598267 124.17900894 208.17036377 125.3262796 208.18518066 126.50831604 C208.15290684 132.72998177 207.88832438 136.47354953 203.6875 141.1875 C197.61091875 146.92120206 190.10470869 145.64891539 182.27734375 145.5 C181.23449219 145.50773438 180.19164062 145.51546875 179.1171875 145.5234375 C177.69768799 145.50095947 177.69768799 145.50095947 176.24951172 145.47802734 C173.42344079 145.99704561 173.42344079 145.99704561 171.52294922 148.80957031 C169.72142816 152.12505919 168.2469277 155.37850906 166.890625 158.8984375 C166.6521283 159.51143707 166.41363159 160.12443665 166.16790771 160.75601196 C165.41763434 162.6889578 164.67742299 164.62557179 163.9375 166.5625 C163.42644546 167.88437157 162.91473256 169.20598881 162.40234375 170.52734375 C161.15644676 173.74449437 159.91953457 176.96501123 158.6875 180.1875 C155.61140106 178.64945053 155.13288318 175.69952362 153.97265625 172.6328125 C153.44597029 171.28254945 152.91927737 169.93228912 152.39257812 168.58203125 C151.56988362 166.44759196 150.7498642 164.31214583 149.9309082 162.17626953 C149.13881262 160.11753569 148.33732128 158.06263942 147.53515625 156.0078125 C147.29442886 155.37022003 147.05370148 154.73262756 146.80567932 154.07571411 C145.52858494 150.81052643 144.51809821 148.30301615 141.6875 146.1875 C138.94824849 145.73793378 138.94824849 145.73793378 135.78642273 145.81568909 C134.55408905 145.80893158 133.32175537 145.80217407 132.05207825 145.79521179 C130.68405015 145.80276541 129.31602342 145.81057115 127.94799805 145.81860352 C126.50903029 145.8161359 125.07006432 145.81229788 123.63110352 145.80718994 C120.53064178 145.79884541 117.43036366 145.79966505 114.32990074 145.80737495 C109.42580528 145.81894769 104.52194652 145.80680342 99.61787415 145.79075623 C87.43467644 145.75454179 75.25148392 145.74833077 63.0682373 145.75085449 C53.60469734 145.75256588 44.14135035 145.74543352 34.67786437 145.71087593 C29.80464543 145.69408543 24.93189698 145.69587383 20.05867994 145.71169865 C17.02312522 145.71750095 13.98779291 145.70674567 10.95227814 145.69145203 C9.54703439 145.68772963 8.14175311 145.69082288 6.73654366 145.70132256 C-4.02082145 145.77632912 -4.02082145 145.77632912 -8.94548035 143.53135681 C-14.50147339 138.02973281 -15.7720374 134.27250531 -15.85461426 126.58607483 C-15.84651733 125.44980148 -15.83842041 124.31352814 -15.83007812 123.14282227 C-15.8370874 121.93399384 -15.84409668 120.72516541 -15.85131836 119.47970581 C-15.86587765 116.1756232 -15.86250696 112.87254641 -15.84980202 109.56852078 C-15.83964386 106.10311656 -15.8490757 102.63775402 -15.85534668 99.17234802 C-15.86261592 93.35269497 -15.85305559 87.53324521 -15.83398438 81.71362305 C-15.81222701 74.99699899 -15.81926125 68.28086087 -15.84129 61.56424862 C-15.85947705 55.78652923 -15.86198596 50.00895564 -15.85153532 44.23121685 C-15.84531711 40.78530002 -15.84441802 37.33961113 -15.85768127 33.89370918 C-15.87144504 30.04947341 -15.85233611 26.20577607 -15.83007812 22.36157227 C-15.83817505 21.22732315 -15.84627197 20.09307404 -15.85461426 18.92445374 C-15.78560189 12.48338172 -15.32365888 8.3359037 -11.3125 3.1875 C-7.45008212 0.31609603 -4.76936207 -0.15723172 0 0 Z " fill="#B6926E" transform="translate(177.3125,32.8125)"/>
<path d="M0 0 C0.9480249 0.0714624 1.8960498 0.1429248 2.87280273 0.21655273 C15.60633617 1.10599705 28.30322247 1.11530251 41.0625 1.0625 C43.20117082 1.05747012 45.33984279 1.05290987 47.47851562 1.04882812 C52.65237303 1.03795153 57.82617325 1.02077072 63 1 C63.495 4.465 63.495 4.465 64 8 C65.3303125 8.37125 65.3303125 8.37125 66.6875 8.75 C70.81812188 10.30872524 73.70695597 12.21436777 76.3125 15.8125 C77.77391961 20.46247149 77.43251218 23.96573174 75.5625 28.4375 C68.35336014 39.71917149 54.27709048 47.4227698 41.55639648 50.61279297 C33.17661641 52.26365839 25.11463306 52.06967461 16.61328125 51.74609375 C15.54464844 51.72417969 14.47601563 51.70226562 13.375 51.6796875 C11.93253906 51.62917236 11.93253906 51.62917236 10.4609375 51.57763672 C7.86402912 51.77132657 7.86402912 51.77132657 6.22338867 53.86450195 C0.07642109 64.59440126 0.64782392 78.88425961 3.6875 90.4375 C5.42771976 95.94507723 7.7251725 100.26969361 11 105 C11 105.66 11 106.32 11 107 C6.45270109 109.34699298 2.0025284 109.93849779 -3 109 C-6.10961011 107.43657311 -8.48687387 105.38927597 -11 103 C-11.59683594 102.45472656 -12.19367188 101.90945313 -12.80859375 101.34765625 C-22.06060327 91.93080023 -27.15334337 76.77947737 -29.5546875 64.0625 C-31.03830448 56.74603271 -33.89996998 53.97880187 -39.61328125 49.31640625 C-44.38166197 44.68850156 -46.09169058 38.34445578 -46.4375 31.8125 C-45.47495831 23.42463668 -42.2636681 17.70802012 -36 12 C-30.72716942 7.95446619 -25.45411767 7.39055394 -18.91796875 7.59765625 C-14.48802936 8.20847788 -10.2408917 9.7591083 -7 13 C-3.41454856 13.39838349 -1.6019651 13.40131007 1.4375 11.375 C3.30009031 9.04665519 3.30009031 9.04665519 2.875 5.9375 C2.11181389 2.84912783 2.11181389 2.84912783 0 0 Z " fill="#EE6495" transform="translate(234,370)"/>
<path d="M0 0 C0.57878906 0.44730469 1.15757812 0.89460938 1.75390625 1.35546875 C4.88736389 3.64970469 8.33861448 4.93098729 11.9375 6.3125 C13.09741455 6.7621814 13.09741455 6.7621814 14.28076172 7.22094727 C23.66590403 10.76298538 33.31747375 13.40734021 43 16 C40.43155025 17.71229983 38.10789433 18.869925 35.3125 20.125 C25.26053434 25.17293035 20.23023464 32.75375694 16 43 C12.56419455 53.66356693 15.38915684 65.59533177 20.15625 75.37109375 C21.04511075 76.94882159 22.01184953 78.48248321 23 80 C11.75901628 83.46526566 0.57659186 80.77110245 -9.58203125 75.71484375 C-21.30887461 69.247967 -28.16261417 60.28062532 -33 48 C-35.33649504 37.01437421 -34.23731594 26.25612911 -28.4921875 16.41796875 C-23.04790137 8.98588512 -10.26560713 -4.09804676 0 0 Z " fill="#EE6495" transform="translate(160,348)"/>
<path d="M0 0 C0.515625 0.680625 1.03125 1.36125 1.5625 2.0625 C9.64593258 11.80407259 17.70244448 16.84217259 30 20 C27.67582596 29.06427874 21.7336537 36.82707356 14 42 C2.02549349 48.01061055 -11.57436536 50.45950108 -24.6875 46.6875 C-26.88671875 45.94921875 -26.88671875 45.94921875 -29 45 C-29.91394531 44.61585938 -30.82789063 44.23171875 -31.76953125 43.8359375 C-32.50558594 43.23007812 -33.24164063 42.62421875 -34 42 C-34.3125 38.77734375 -34.3125 38.77734375 -34 34.9375 C-33.67128209 27.86751003 -34.71953398 22.74046993 -39 17 C-40.9079826 15.07414403 -42.79013022 13.59316193 -45 12 C-45 11.67 -45 11.34 -45 11 C-40.01589112 9.47942441 -35.08508819 8.44288003 -29.9375 7.625 C-22.0821067 6.31175437 -14.61891146 4.33482771 -7 2 C-4.6691443 1.32429671 -2.33490211 0.66165362 0 0 Z " fill="#EE6496" transform="translate(358,358)"/>
<path d="M0 0 C0.7381041 -0.00241196 1.47620819 -0.00482391 2.23667908 -0.00730896 C3.79073482 -0.00633301 5.3448264 0.00700083 6.89868164 0.03198242 C9.27415119 0.06636005 11.64591097 0.05261662 14.02148438 0.03320312 C15.53517204 0.0401005 17.04885014 0.04977191 18.5625 0.0625 C19.26987808 0.05754013 19.97725616 0.05258026 20.70606995 0.04747009 C23.9570234 0.12497408 25.94146154 0.44418337 28.65771484 2.27954102 C31.76130511 6.9621765 30.82552611 12.69280275 30.77734375 18.12890625 C30.81311523 19.98322266 30.81311523 19.98322266 30.84960938 21.875 C30.84767578 23.06222656 30.84574219 24.24945313 30.84375 25.47265625 C30.8444751 26.55740234 30.8452002 27.64214844 30.84594727 28.75976562 C30.21484375 31.62890625 30.21484375 31.62890625 28.14624023 33.97607422 C24.59530745 35.97822421 21.66003954 36.24112268 17.68359375 36.23046875 C16.97005737 36.239039 16.256521 36.24760925 15.5213623 36.25643921 C14.01867909 36.26788169 12.51588516 36.26895868 11.01318359 36.26025391 C8.7204044 36.25392161 6.43276825 36.30091012 4.140625 36.3515625 C2.67578772 36.35610833 1.21093665 36.35751554 -0.25390625 36.35546875 C-0.93424927 36.37388824 -1.61459229 36.39230774 -2.31555176 36.4112854 C-6.32835748 36.33368174 -7.72366174 35.68541375 -10.71435547 32.93725586 C-12.84529063 29.53283445 -13.42560015 27.91474345 -13.44921875 23.96875 C-13.45566406 22.92783203 -13.46210938 21.88691406 -13.46875 20.81445312 C-13.44941406 19.74259766 -13.43007813 18.67074219 -13.41015625 17.56640625 C-13.42949219 16.49068359 -13.44882812 15.41496094 -13.46875 14.30664062 C-13.46230469 13.26701172 -13.45585937 12.22738281 -13.44921875 11.15625 C-13.4435791 10.21515381 -13.43793945 9.27405762 -13.43212891 8.30444336 C-11.70937631 1.18004874 -6.57666857 -0.12361859 0 0 Z " fill="#FEEAD7" transform="translate(342.78515625,49.37109375)"/>
<path d="M0 0 C0.87037399 -0.00861557 1.74074799 -0.01723114 2.63749695 -0.02610779 C5.51392375 -0.04880592 8.38937927 -0.04202162 11.26586914 -0.03295898 C13.26599925 -0.03819311 15.26612688 -0.04446881 17.26625061 -0.05174255 C21.45854302 -0.06215405 25.65049616 -0.05757483 29.84277344 -0.04296875 C35.21440834 -0.02578554 40.58497315 -0.04926675 45.95648861 -0.08445835 C50.08723536 -0.10642329 54.21772575 -0.10499295 58.34851265 -0.09669304 C60.32885473 -0.09587292 62.30921552 -0.10274795 64.2895031 -0.11746407 C67.05955549 -0.13489195 69.82768125 -0.12038233 72.59765625 -0.09765625 C73.41496216 -0.10934845 74.23226807 -0.12104065 75.07434082 -0.13308716 C79.33627415 -0.06197334 80.91005602 0.1753199 84.37623596 2.91273499 C86.36352539 5.53344727 86.36352539 5.53344727 86.92602539 8.09594727 C86.19319236 11.27155708 84.84950452 12.48617033 82.36352539 14.53344727 C79.15562988 16.13739502 75.66245441 15.69871672 72.13769531 15.71044922 C70.86183311 15.72030602 70.86183311 15.72030602 69.56019592 15.73036194 C66.73812782 15.75011422 63.91611297 15.76176165 61.09399414 15.77172852 C60.13120356 15.77580404 59.16841297 15.77987957 58.17644691 15.7840786 C53.08084959 15.80494731 47.98527927 15.81924571 42.88964844 15.82861328 C37.62353635 15.83968102 32.35784643 15.87408288 27.09188366 15.91378498 C23.04526477 15.93991649 18.99874701 15.94830202 14.95205116 15.95189476 C13.01076722 15.95676948 11.06948805 15.96840858 9.12828636 15.98693275 C6.41102926 16.01125117 3.69487141 16.01037266 0.97753906 16.00341797 C0.17579254 16.01622803 -0.62595398 16.02903809 -1.45199585 16.04223633 C-5.17187539 16.00753835 -7.427085 15.65968701 -10.63969421 13.7228241 C-12.63647461 11.53344727 -12.63647461 11.53344727 -13.19897461 8.03344727 C-11.94580747 0.23596282 -6.95584791 -0.0554026 0 0 Z " fill="#0B0906" transform="translate(266.636474609375,96.466552734375)"/>
<path d="M0 0 C1.69576172 0.01148071 1.69576172 0.01148071 3.42578125 0.02319336 C17.63351403 0.39638907 29.26020613 4.52311093 40.3125 13.625 C40.91964844 14.06070312 41.52679688 14.49640625 42.15234375 14.9453125 C46.24942355 18.04831625 49.25095193 21.92260536 52.25 26.0625 C52.65226807 26.6002002 53.05453613 27.13790039 53.46899414 27.69189453 C56.29310427 31.76535506 56.84891491 34.73242445 56.3125 39.625 C54.29935068 42.64472398 52.97312454 43.43415291 49.5 44.4375 C44.29541443 43.11084093 42.3094677 38.86027524 39.3125 34.625 C31.54364356 24.62102013 21.08222316 17.27572031 8.3125 15.625 C-2.69929042 14.90194379 -12.61461323 15.58855662 -22.6875 20.625 C-28.82295817 21.07121514 -28.82295817 21.07121514 -31.625 19.625 C-33.39777316 16.28801522 -33.7456584 13.19891249 -32.6875 9.625 C-25.06961292 1.33430807 -10.49160629 -0.10639775 0 0 Z " fill="#040203" transform="translate(238.6875,307.375)"/>
<path d="M0 0 C0.78259186 -0.00686325 1.56518372 -0.0137265 2.37149048 -0.02079773 C4.95560913 -0.03908252 7.53912162 -0.03522588 10.12329102 -0.02954102 C11.92163796 -0.03410213 13.71998315 -0.03940749 15.51832581 -0.04542542 C19.28686607 -0.05435988 23.05519446 -0.05192972 26.82373047 -0.04199219 C31.65043738 -0.0305039 36.47641256 -0.05070991 41.30302334 -0.07990932 C45.01683693 -0.09826595 48.73047501 -0.09797992 52.44432259 -0.0922718 C54.22370492 -0.09211851 56.0030991 -0.09816931 57.78243828 -0.11056328 C60.27209075 -0.12546109 62.76038955 -0.11480603 65.25 -0.09765625 C65.98314926 -0.10732422 66.71629852 -0.11699219 67.47166443 -0.12695312 C71.05832598 -0.07528348 73.0781427 0.33434876 76.14686584 2.2518158 C78.18969727 4.40405273 78.18969727 4.40405273 78.81469727 7.34155273 C77.96963044 11.48238016 76.48116237 12.78859724 73.18969727 15.40405273 C70.34681455 15.89956373 68.10237669 16.09026758 65.26586914 16.05102539 C64.48313126 16.05978699 63.70039337 16.06854858 62.89393616 16.07757568 C60.31487057 16.09952464 57.73752928 16.08503421 55.15844727 16.06811523 C53.36152824 16.07148469 51.56461143 16.0763384 49.7677002 16.08261108 C46.00498721 16.08997627 42.24286842 16.0792886 38.48022461 16.0559082 C33.6611883 16.02742029 28.84354427 16.04382621 24.02455902 16.07377052 C20.31497743 16.09185328 16.60572502 16.08608106 12.89613342 16.07313156 C11.11955093 16.06980023 9.34293838 16.07387504 7.56639099 16.08552933 C5.08129934 16.0982547 2.5984503 16.07884046 0.11352539 16.05102539 C-0.98384193 16.06620712 -0.98384193 16.06620712 -2.1033783 16.08169556 C-5.97650332 16.00153094 -7.70216017 15.4877038 -10.80163574 13.09017944 C-12.81030273 10.40405273 -12.81030273 10.40405273 -12.87280273 6.77905273 C-10.75137821 0.04041014 -6.4069038 -0.03923105 0 0 Z " fill="#0B0907" transform="translate(206.810302734375,130.595947265625)"/>
<path d="M0 0 C1.56814453 -0.02900391 1.56814453 -0.02900391 3.16796875 -0.05859375 C10.52831876 -0.01147243 10.52831876 -0.01147243 14.18359375 2.3828125 C16.28614635 7.56120614 16.11625526 12.59136982 16.0625 18.125 C16.08634766 19.25292969 16.11019531 20.38085938 16.13476562 21.54296875 C16.12621069 26.36224599 16.06443372 29.65102913 13.62109375 33.8671875 C9.07325398 36.42854907 5.13682255 36.35598671 0 36.25 C-0.93714844 36.26933594 -1.87429688 36.28867188 -2.83984375 36.30859375 C-7.12245146 36.27822065 -9.84985587 35.99116378 -13.62109375 33.8671875 C-16.56996042 28.77870656 -16.18453108 23.89674019 -16.0625 18.125 C-16.07345703 16.99707031 -16.08441406 15.86914062 -16.09570312 14.70703125 C-16.05584143 10.21594672 -15.88120765 6.56387937 -14.18359375 2.3828125 C-9.73921979 -0.52834948 -5.18771669 -0.09595037 0 0 Z " fill="#FEE9D5" transform="translate(305.5,49.375)"/>
<path d="M0 0 C2.29379588 2.07181563 2.88104263 3.35423142 3.4375 6.375 C2.84500173 9.92998962 1.08143644 12.09860374 -1 15 C-2.90091691 20.70275072 -2.9309726 26.74564408 -0.375 32.25 C1.16918733 35.02176071 2.89748846 36.94969935 5.25 39.0625 C7.81351321 41.45034099 7.98201665 41.89569656 8.625 45.625 C8 49 8 49 6.4375 51.5 C4 53 4 53 0.75 53.25 C-6.9435347 50.68548843 -11.31264288 44.16202757 -15.08984375 37.2734375 C-18.03145207 29.92572917 -18.36257218 19.87843201 -16.24609375 12.30078125 C-15.289632 10.09154214 -14.2416885 8.06103397 -13 6 C-12.64164062 5.3915625 -12.28328125 4.783125 -11.9140625 4.15625 C-8.45659735 -1.35489745 -6.27412774 -1.43094141 0 0 Z " fill="#040303" transform="translate(330,282)"/>
<path d="M0 0 C0.33 0 0.66 0 1 0 C1.85573856 12.6839471 0.05789465 22.76122543 -8.4375 32.5625 C-16.90427089 41.12675016 -16.90427089 41.12675016 -23.8125 41.5625 C-29.35665689 41.32036062 -33.67852684 39.44755744 -38 36 C-39.75542911 34.05784968 -41.37075022 32.05291159 -43 30 C-42.44763672 29.74943848 -41.89527344 29.49887695 -41.32617188 29.24072266 C-19.94350324 19.63545854 -19.94350324 19.63545854 -1 6 C-0.11406002 2.86136296 -0.11406002 2.86136296 0 0 Z " fill="#EC6395" transform="translate(415,323)"/>
<path d="M0 0 C0.86890869 -0.0038269 1.73781738 -0.00765381 2.63305664 -0.01159668 C4.46534386 -0.01431179 6.2976701 -0.00697867 8.12988281 0.00976562 C10.92861647 0.03118202 13.72478333 0.00995145 16.5234375 -0.015625 C18.30729731 -0.01298165 20.09115553 -0.00785652 21.875 0 C23.12518921 -0.01214539 23.12518921 -0.01214539 24.40063477 -0.02453613 C28.37631757 0.039377 30.48327209 0.2590063 33.96484375 2.34570312 C35.9375 4.53125 35.9375 4.53125 36.5625 8.03125 C35.9375 11.53125 35.9375 11.53125 33.96484375 13.71459961 C29.85144383 16.18297129 26.58863078 16.1257068 21.875 16.09765625 C21.00609131 16.10385483 20.13718262 16.11005341 19.24194336 16.11643982 C17.40967934 16.12352575 15.57735076 16.12038539 13.74511719 16.10766602 C10.9460584 16.09379242 8.15033954 16.1278952 5.3515625 16.16601562 C3.56770752 16.16696683 1.78384836 16.16510794 0 16.16015625 C-0.83345947 16.17341446 -1.66691895 16.18667267 -2.52563477 16.20033264 C-6.84556717 16.13130136 -8.56487549 15.91718991 -12.08984375 13.18334961 C-14.0625 10.53125 -14.0625 10.53125 -14.6875 7.46875 C-14.0625 4.53125 -14.0625 4.53125 -12.08984375 2.38085938 C-7.97265201 -0.13461197 -4.73625451 -0.04601195 0 0 Z " fill="#0B0906" transform="translate(239.0625,62.46875)"/>
<path d="M0 0 C0.67055923 -0.00619858 1.34111847 -0.01239716 2.03199768 -0.01878357 C3.44652865 -0.02586903 4.86114324 -0.02272972 6.27563477 -0.01000977 C8.43207476 0.00384629 10.58416159 -0.03020533 12.74023438 -0.06835938 C14.11849064 -0.06931082 15.4967523 -0.0674504 16.875 -0.0625 C18.1220874 -0.0632251 19.3691748 -0.0639502 20.65405273 -0.06469727 C24.87742898 0.73097562 26.35927912 2.24942153 29.00390625 5.56640625 C29.56640625 8.12890625 29.56640625 8.12890625 29.00390625 10.56640625 C27.1336314 12.81073607 25.61504221 14.26083827 23.00390625 15.56640625 C18.91817716 15.8237834 14.83074138 15.83740472 10.73754883 15.86157227 C8.70910596 15.87875631 6.68230631 15.92264 4.65429688 15.96679688 C3.37103516 15.97517578 2.08777344 15.98355469 0.765625 15.9921875 C-0.41040283 16.00677002 -1.58643066 16.02135254 -2.7980957 16.03637695 C-6.66046979 15.46877102 -8.3059843 14.35786502 -10.99609375 11.56640625 C-11.55859375 8.06640625 -11.55859375 8.06640625 -10.99609375 4.56640625 C-7.83216379 0.24325489 -5.20034023 0.04539579 0 0 Z " fill="#0B0907" transform="translate(323.99609375,130.43359375)"/>
<path d="M0 0 C2.01146693 0.00097231 4.01911302 -0.04066221 6.0300293 -0.08496094 C7.94138672 -0.08882813 7.94138672 -0.08882813 9.89135742 -0.09277344 C11.05465576 -0.09986328 12.2179541 -0.10695313 13.41650391 -0.11425781 C17.52220987 0.68351989 19.02782807 2.25559043 21.58276367 5.50097656 C21.70776367 8.56347656 21.70776367 8.56347656 20.58276367 11.50097656 C15.77939821 16.26052754 11.912907 16.045533 5.43432617 16.09667969 C4.16331055 16.08572266 2.89229492 16.07476562 1.58276367 16.06347656 C0.31174805 16.08732422 -0.95926758 16.11117187 -2.26879883 16.13574219 C-12.62910697 16.11938381 -12.62910697 16.11938381 -15.78833008 13.19238281 C-17.41723633 10.50097656 -17.41723633 10.50097656 -17.47973633 6.87597656 C-14.85753887 -1.45335653 -7.45143124 -0.02545322 0 0 Z " fill="#0D0A07" transform="translate(211.417236328125,96.4990234375)"/>
<path d="M0 0 C3.18500291 1.62145603 5.22111096 2.97328264 7.375 5.8125 C8.65727049 10.30044672 8.41817382 13.91274806 6.75 18.25 C4.96692883 21.05196898 3.803085 22.29163997 1 24 C-2.7272788 24.66657743 -6.26435329 24.60413278 -10 24 C-13.22344672 21.5659688 -14.7746971 19.33795435 -17 16 C-17.8787062 9.4097035 -17.8787062 9.4097035 -15.7265625 5.95703125 C-10.95328674 0.3105953 -7.37961029 -0.90539757 0 0 Z " fill="#F8C7DD" transform="translate(188,244)"/>
<path d="M0 0 C3 2.5 3 2.5 5 5 C5.33 5.33 5.66 5.66 6 6 C6.52248736 11.10495843 6.83350333 15.54136917 4.25 20.0625 C0.86921671 22.97373005 -0.8726082 23.89561187 -5.375 24.3125 C-10.35852994 23.88288535 -13.53679513 22.65829885 -16.875 18.875 C-18.45916485 14.82657871 -18.81470192 11.2847286 -18 7 C-13.98075927 -0.52810169 -7.79558594 -2.20944414 0 0 Z " fill="#F8C8DD" transform="translate(352,258)"/>
<path d="M0 0 C0.56847656 0.73734375 1.13695313 1.4746875 1.72265625 2.234375 C8.76570612 10.78751276 17.84998716 16.92993538 27 23 C27.99 23.66 28.98 24.32 30 25 C29.27554688 25.44730469 28.55109375 25.89460938 27.8046875 26.35546875 C22.5678878 29.63021416 17.61175196 32.88681582 13 37 C3.04671011 25.38304783 -0.24164802 15.08957663 0 0 Z " fill="#E96293" transform="translate(111,314)"/>
<path d="M0 0 C2.4375 1.5625 2.4375 1.5625 4 4 C3.9375 7.625 3.9375 7.625 3 11 C-0.46923881 13.31282587 -1.92205575 13.42478586 -6 13 C-7.875 11.9375 -7.875 11.9375 -9 10 C-9.63316583 4.09045226 -9.63316583 4.09045226 -7.875 1.0625 C-5.06487736 -0.52990283 -3.17235276 -0.45319325 0 0 Z " fill="#F8C6DC" transform="translate(346,286)"/>
<path d="M0 0 C2 2 2 2 2.3125 5.4375 C2 9 2 9 0.9375 10.9375 C-2.15493758 12.63335287 -4.55514741 12.43060657 -8 12 C-10 10.375 -10 10.375 -11 8 C-10.92897215 4.5196355 -10.61415498 2.70514091 -8.3125 0.0625 C-5.16096578 -1.38550221 -3.29050737 -0.929926 0 0 Z " fill="#F8C6DC" transform="translate(185,273)"/>
<path d="M0 0 C1.9375 1.125 1.9375 1.125 3 3 C3.54624158 6.66762206 3.47898298 8.3258758 1.3125 11.375 C-1 13 -1 13 -3.5 13.5 C-6.87013879 12.82597224 -8.01677007 11.7912125 -10 9 C-10.45319325 5.82764724 -10.52990283 3.93512264 -8.9375 1.125 C-5.8930714 -0.64273274 -3.4368988 -0.36823916 0 0 Z " fill="#F8C7DC" transform="translate(227,233)"/>
</svg>
